<?xml version="1.0" standalone="no"?>
<svg width="567.429" height="235.984" viewBox="0 0 567.429 235.984" xmlns="http://www.w3.org/2000/svg">
<title>
/home/olaralex/Asztal/c++advanced/particleHIJINGadatok/kaon_pos.svg
</title>
<desc>
Creator: ROOT Version 6.08/04
CreationDate: Thu Feb 23 23:34:09 2017</desc>
<defs>
</defs>
<rect x="0.5" y="0" width="566.929" height="235.484" fill="white"/>
<rect x="6.16929" y="2.35484" width="177.638" height="230.774" fill="white"/>
<rect x="23.9331" y="25.4323" width="142.11" height="184.619" fill="white"/>
<rect x="23.9331" y="25.4323" width="142.11" height="184.619" fill="none" stroke="black"/>
<rect x="23.9331" y="25.4323" width="142.11" height="184.619" fill="white"/>
<rect x="23.9331" y="25.4323" width="142.11" height="184.619" fill="none" stroke="black"/>
<path d="M23.9331,205.168h 0.14211v 4.88411h 2.70009v -4.88411h 0.14211v 4.88411h 0.14211v -4.88411h 0.28422v -4.88411h 0.426331v -9.76822h 0.28422v 4.88411h 0.14211v -14.6523h 0.14211v -19.5364h 0.14211v 14.6523h 0.14211v 24.4206h 0.14211v -29.3047h
 0.14211v -9.76822h 0.14211v -9.76822h 0.14211v -24.4206h 0.14211v -19.5364h 0.14211v 34.1888h 0.14211v -4.88411h 0.14211v -48.8411h 0.14211v 14.6523h 0.28422v -29.3047h 0.14211v 4.88411h 0.14211v 9.76822h 0.14211v -24.4206h 0.14211v -24.4206h
 0.14211v 68.3775h 0.14211v -48.8411h 0.14211v 34.1888h 0.14211v -19.5364h 0.14211v -4.88411h 0.14211v 24.4206h 0.14211v -24.4206h 0.14211v -19.5364h 0.14211v 4.88411h 0.14211v 24.4206h 0.14211v 9.76822h 0.28422v -9.76822h 0.14211v -43.957h 0.14211v
 97.6822h 0.14211v -19.5364h 0.14211v -9.76822h 0.14211v 24.4206h 0.14211v -19.5364h 0.14211v 19.5364h 0.14211v 29.3047h 0.14211v -9.76822h 0.14211v 19.5364h 0.14211v -9.76822h 0.14211v -4.88411h 0.14211v -19.5364h 0.14211v 43.957h 0.14211v -4.88411h
 0.14211v 4.88411h 0.14211v 24.4206h 0.14211v -14.6523h 0.28422v -9.76822h 0.14211v 19.5364h 0.28422v 4.88411h 0.14211v -9.76822h 0.14211v 9.76822h 0.14211v 4.88411h 0.14211v -4.88411h 0.14211v 4.88411h 0.568441v 4.88411h 0.28422v -14.6523h 0.14211v
 14.6523h 0.28422v -4.88411h 0.28422v 4.88411h 2.8422v -4.88411h 0.14211v 4.88411h 124.915" fill="none" stroke="#000099"/>
<rect x="144.727" y="17.3552" width="35.5276" height="36.9239" fill="white"/>
<path d="M144.727,54.279h 35.5276" fill="none" stroke="black"/>
<path d="M180.254,54.279v -36.9239" fill="none" stroke="black"/>
<path d="M180.254,17.3552h -35.5276" fill="none" stroke="black"/>
<path d="M144.727,17.3552v 36.9239" fill="none" stroke="black"/>
<text xml:space="preserve" x="158.962" y="24.6216" fill="black" font-size="6.49731" font-family="Helvetica">
h1
</text>
<path d="M144.727,26.5861h 35.5276" fill="none" stroke="black"/>
<text xml:space="preserve" x="146.336" y="32.8289" fill="black" font-size="4.455" font-family="Helvetica">
Entries 
</text>
<text xml:space="preserve" x="169.064" y="32.8289" fill="black" font-size="4.455" font-family="Helvetica">
 1001
</text>
<text xml:space="preserve" x="146.336" y="42.2987" fill="black" font-size="4.455" font-family="Helvetica">
Mean  
</text>
<text xml:space="preserve" x="165.907" y="42.2987" fill="black" font-size="4.455" font-family="Helvetica">
  54.39
</text>
<text xml:space="preserve" x="146.336" y="51.1373" fill="black" font-size="4.455" font-family="Helvetica">
Std Dev   
</text>
<text xml:space="preserve" x="165.907" y="51.1373" fill="black" font-size="4.455" font-family="Helvetica">
  13.46
</text>
<path d="M23.9331,210.052h 142.11" fill="none" stroke="black"/>
<path d="M23.9331,204.513v 5.53858" fill="none" stroke="black"/>
<path d="M26.7753,207.282v 2.76929" fill="none" stroke="black"/>
<path d="M29.6175,207.282v 2.76929" fill="none" stroke="black"/>
<path d="M32.4597,207.282v 2.76929" fill="none" stroke="black"/>
<path d="M35.3019,207.282v 2.76929" fill="none" stroke="black"/>
<path d="M38.1441,204.513v 5.53858" fill="none" stroke="black"/>
<path d="M40.9863,207.282v 2.76929" fill="none" stroke="black"/>
<path d="M43.8285,207.282v 2.76929" fill="none" stroke="black"/>
<path d="M46.6707,207.282v 2.76929" fill="none" stroke="black"/>
<path d="M49.5129,207.282v 2.76929" fill="none" stroke="black"/>
<path d="M52.3551,204.513v 5.53858" fill="none" stroke="black"/>
<path d="M55.1973,207.282v 2.76929" fill="none" stroke="black"/>
<path d="M58.0395,207.282v 2.76929" fill="none" stroke="black"/>
<path d="M60.8817,207.282v 2.76929" fill="none" stroke="black"/>
<path d="M63.7239,207.282v 2.76929" fill="none" stroke="black"/>
<path d="M66.5661,204.513v 5.53858" fill="none" stroke="black"/>
<path d="M69.4083,207.282v 2.76929" fill="none" stroke="black"/>
<path d="M72.2505,207.282v 2.76929" fill="none" stroke="black"/>
<path d="M75.0928,207.282v 2.76929" fill="none" stroke="black"/>
<path d="M77.935,207.282v 2.76929" fill="none" stroke="black"/>
<path d="M80.7772,204.513v 5.53858" fill="none" stroke="black"/>
<path d="M83.6194,207.282v 2.76929" fill="none" stroke="black"/>
<path d="M86.4616,207.282v 2.76929" fill="none" stroke="black"/>
<path d="M89.3038,207.282v 2.76929" fill="none" stroke="black"/>
<path d="M92.146,207.282v 2.76929" fill="none" stroke="black"/>
<path d="M94.9882,204.513v 5.53858" fill="none" stroke="black"/>
<path d="M97.8304,207.282v 2.76929" fill="none" stroke="black"/>
<path d="M100.673,207.282v 2.76929" fill="none" stroke="black"/>
<path d="M103.515,207.282v 2.76929" fill="none" stroke="black"/>
<path d="M106.357,207.282v 2.76929" fill="none" stroke="black"/>
<path d="M109.199,204.513v 5.53858" fill="none" stroke="black"/>
<path d="M112.041,207.282v 2.76929" fill="none" stroke="black"/>
<path d="M114.884,207.282v 2.76929" fill="none" stroke="black"/>
<path d="M117.726,207.282v 2.76929" fill="none" stroke="black"/>
<path d="M120.568,207.282v 2.76929" fill="none" stroke="black"/>
<path d="M123.41,204.513v 5.53858" fill="none" stroke="black"/>
<path d="M126.252,207.282v 2.76929" fill="none" stroke="black"/>
<path d="M129.095,207.282v 2.76929" fill="none" stroke="black"/>
<path d="M131.937,207.282v 2.76929" fill="none" stroke="black"/>
<path d="M134.779,207.282v 2.76929" fill="none" stroke="black"/>
<path d="M137.621,204.513v 5.53858" fill="none" stroke="black"/>
<path d="M140.463,207.282v 2.76929" fill="none" stroke="black"/>
<path d="M143.306,207.282v 2.76929" fill="none" stroke="black"/>
<path d="M146.148,207.282v 2.76929" fill="none" stroke="black"/>
<path d="M148.99,207.282v 2.76929" fill="none" stroke="black"/>
<path d="M151.832,204.513v 5.53858" fill="none" stroke="black"/>
<path d="M154.674,207.282v 2.76929" fill="none" stroke="black"/>
<path d="M157.517,207.282v 2.76929" fill="none" stroke="black"/>
<path d="M160.359,207.282v 2.76929" fill="none" stroke="black"/>
<path d="M163.201,207.282v 2.76929" fill="none" stroke="black"/>
<path d="M166.043,204.513v 5.53858" fill="none" stroke="black"/>
<text xml:space="preserve" x="21.965" y="217.176" fill="black" font-size="6.20397" font-family="Helvetica">
0
</text>
<text xml:space="preserve" x="32.6975" y="217.176" fill="black" font-size="6.20397" font-family="Helvetica">
100
</text>
<text xml:space="preserve" x="47.218" y="217.176" fill="black" font-size="6.20397" font-family="Helvetica">
200
</text>
<text xml:space="preserve" x="61.1071" y="217.176" fill="black" font-size="6.20397" font-family="Helvetica">
300
</text>
<text xml:space="preserve" x="75.6276" y="217.176" fill="black" font-size="6.20397" font-family="Helvetica">
400
</text>
<text xml:space="preserve" x="89.5167" y="217.176" fill="black" font-size="6.20397" font-family="Helvetica">
500
</text>
<text xml:space="preserve" x="104.037" y="217.176" fill="black" font-size="6.20397" font-family="Helvetica">
600
</text>
<text xml:space="preserve" x="117.926" y="217.176" fill="black" font-size="6.20397" font-family="Helvetica">
700
</text>
<text xml:space="preserve" x="132.447" y="217.176" fill="black" font-size="6.20397" font-family="Helvetica">
800
</text>
<text xml:space="preserve" x="146.336" y="217.176" fill="black" font-size="6.20397" font-family="Helvetica">
900
</text>
<text xml:space="preserve" x="159.594" y="217.176" fill="black" font-size="6.20397" font-family="Helvetica">
1000
</text>
<path d="M23.9331,210.052v -184.619" fill="none" stroke="black"/>
<path d="M28.1964,210.052h -4.26331" fill="none" stroke="black"/>
<path d="M26.0647,205.168h -2.13165" fill="none" stroke="black"/>
<path d="M26.0647,200.283h -2.13165" fill="none" stroke="black"/>
<path d="M26.0647,195.399h -2.13165" fill="none" stroke="black"/>
<path d="M26.0647,190.515h -2.13165" fill="none" stroke="black"/>
<path d="M28.1964,185.631h -4.26331" fill="none" stroke="black"/>
<path d="M26.0647,180.747h -2.13165" fill="none" stroke="black"/>
<path d="M26.0647,175.863h -2.13165" fill="none" stroke="black"/>
<path d="M26.0647,170.979h -2.13165" fill="none" stroke="black"/>
<path d="M26.0647,166.095h -2.13165" fill="none" stroke="black"/>
<path d="M28.1964,161.211h -4.26331" fill="none" stroke="black"/>
<path d="M26.0647,156.326h -2.13165" fill="none" stroke="black"/>
<path d="M26.0647,151.442h -2.13165" fill="none" stroke="black"/>
<path d="M26.0647,146.558h -2.13165" fill="none" stroke="black"/>
<path d="M26.0647,141.674h -2.13165" fill="none" stroke="black"/>
<path d="M28.1964,136.79h -4.26331" fill="none" stroke="black"/>
<path d="M26.0647,131.906h -2.13165" fill="none" stroke="black"/>
<path d="M26.0647,127.022h -2.13165" fill="none" stroke="black"/>
<path d="M26.0647,122.138h -2.13165" fill="none" stroke="black"/>
<path d="M26.0647,117.254h -2.13165" fill="none" stroke="black"/>
<path d="M28.1964,112.369h -4.26331" fill="none" stroke="black"/>
<path d="M26.0647,107.485h -2.13165" fill="none" stroke="black"/>
<path d="M26.0647,102.601h -2.13165" fill="none" stroke="black"/>
<path d="M26.0647,97.7171h -2.13165" fill="none" stroke="black"/>
<path d="M26.0647,92.833h -2.13165" fill="none" stroke="black"/>
<path d="M28.1964,87.9489h -4.26331" fill="none" stroke="black"/>
<path d="M26.0647,83.0648h -2.13165" fill="none" stroke="black"/>
<path d="M26.0647,78.1807h -2.13165" fill="none" stroke="black"/>
<path d="M26.0647,73.2965h -2.13165" fill="none" stroke="black"/>
<path d="M26.0647,68.4124h -2.13165" fill="none" stroke="black"/>
<path d="M28.1964,63.5283h -4.26331" fill="none" stroke="black"/>
<path d="M26.0647,58.6442h -2.13165" fill="none" stroke="black"/>
<path d="M26.0647,53.7601h -2.13165" fill="none" stroke="black"/>
<path d="M26.0647,48.876h -2.13165" fill="none" stroke="black"/>
<path d="M26.0647,43.9919h -2.13165" fill="none" stroke="black"/>
<path d="M28.1964,39.1078h -4.26331" fill="none" stroke="black"/>
<path d="M28.1964,39.1078h -4.26331" fill="none" stroke="black"/>
<path d="M26.0647,34.2237h -2.13165" fill="none" stroke="black"/>
<path d="M26.0647,29.3396h -2.13165" fill="none" stroke="black"/>
<text xml:space="preserve" x="19.4397" y="212.125" fill="black" font-size="6.20397" font-family="Helvetica">
0
</text>
<text xml:space="preserve" x="19.4397" y="188.135" fill="black" font-size="6.20397" font-family="Helvetica">
5
</text>
<text xml:space="preserve" x="16.2831" y="163.513" fill="black" font-size="6.20397" font-family="Helvetica">
10
</text>
<text xml:space="preserve" x="16.2831" y="138.891" fill="black" font-size="6.20397" font-family="Helvetica">
15
</text>
<text xml:space="preserve" x="16.2831" y="114.27" fill="black" font-size="6.20397" font-family="Helvetica">
20
</text>
<text xml:space="preserve" x="16.2831" y="90.2794" fill="black" font-size="6.20397" font-family="Helvetica">
25
</text>
<text xml:space="preserve" x="16.2831" y="65.6577" fill="black" font-size="6.20397" font-family="Helvetica">
30
</text>
<text xml:space="preserve" x="16.2831" y="41.0361" fill="black" font-size="6.20397" font-family="Helvetica">
35
</text>
<rect x="144.727" y="17.3552" width="35.5276" height="36.9239" fill="white"/>
<path d="M144.727,54.279h 35.5276" fill="none" stroke="black"/>
<path d="M180.254,54.279v -36.9239" fill="none" stroke="black"/>
<path d="M180.254,17.3552h -35.5276" fill="none" stroke="black"/>
<path d="M144.727,17.3552v 36.9239" fill="none" stroke="black"/>
<text xml:space="preserve" x="158.962" y="24.6216" fill="black" font-size="6.49731" font-family="Helvetica">
h1
</text>
<path d="M144.727,26.5861h 35.5276" fill="none" stroke="black"/>
<text xml:space="preserve" x="146.336" y="32.8289" fill="black" font-size="4.455" font-family="Helvetica">
Entries 
</text>
<text xml:space="preserve" x="169.064" y="32.8289" fill="black" font-size="4.455" font-family="Helvetica">
 1001
</text>
<text xml:space="preserve" x="146.336" y="42.2987" fill="black" font-size="4.455" font-family="Helvetica">
Mean  
</text>
<text xml:space="preserve" x="165.907" y="42.2987" fill="black" font-size="4.455" font-family="Helvetica">
  54.39
</text>
<text xml:space="preserve" x="146.336" y="51.1373" fill="black" font-size="4.455" font-family="Helvetica">
Std Dev   
</text>
<text xml:space="preserve" x="165.907" y="51.1373" fill="black" font-size="4.455" font-family="Helvetica">
  13.46
</text>
<text xml:space="preserve" x="64.2637" y="12.6265" fill="black" font-size="8.11887" font-family="Helvetica">
Number of events
</text>
<rect x="195.146" y="2.35484" width="177.638" height="230.774" fill="white"/>
<rect x="212.909" y="25.4323" width="142.11" height="184.619" fill="white"/>
<rect x="212.909" y="25.4323" width="142.11" height="184.619" fill="none" stroke="black"/>
<rect x="212.909" y="25.4323" width="142.11" height="184.619" fill="white"/>
<rect x="212.909" y="25.4323" width="142.11" height="184.619" fill="none" stroke="black"/>
<path d="M226.41,45.3127v -5.54454" fill="none" stroke="#000099"/>
<path d="M226.41,39.7682v -5.54454" fill="none" stroke="#000099"/>
<path d="M225.699,39.7682h 0.710551" fill="none" stroke="#000099"/>
<path d="M226.41,39.7682h 0.710551" fill="none" stroke="#000099"/>
<g stroke="black" stroke-width="1" fill="none">
<line x1="225.41" y1="39.7682" x2="226.41" y2="39.7682"/>
</g>
<rect x="333.703" y="17.3552" width="35.5276" height="36.9239" fill="white"/>
<path d="M333.703,54.279h 35.5276" fill="none" stroke="black"/>
<path d="M369.231,54.279v -36.9239" fill="none" stroke="black"/>
<path d="M369.231,17.3552h -35.5276" fill="none" stroke="black"/>
<path d="M333.703,17.3552v 36.9239" fill="none" stroke="black"/>
<text xml:space="preserve" x="347.097" y="24.6216" fill="black" font-size="6.49731" font-family="Helvetica">
h2
</text>
<path d="M333.703,26.5861h 35.5276" fill="none" stroke="black"/>
<text xml:space="preserve" x="335.102" y="32.8289" fill="black" font-size="3.8535" font-family="Helvetica">
Entries 
</text>
<text xml:space="preserve" x="359.723" y="32.1975" fill="black" font-size="3.8535" font-family="Helvetica">
 1001
</text>
<text xml:space="preserve" x="335.102" y="42.2987" fill="black" font-size="3.8535" font-family="Helvetica">
Mean  
</text>
<text xml:space="preserve" x="356.567" y="41.6674" fill="black" font-size="3.8535" font-family="Helvetica">
 0.4936
</text>
<text xml:space="preserve" x="335.102" y="51.1373" fill="black" font-size="3.8535" font-family="Helvetica">
Std Dev   
</text>
<text xml:space="preserve" x="363.511" y="50.5059" fill="black" font-size="3.8535" font-family="Helvetica">
06
</text>
<text xml:space="preserve" x="361.617" y="50.5059" fill="black" font-size="3.8535" font-family="Times">
&#8722;
</text>
<text xml:space="preserve" x="350.885" y="50.5059" fill="black" font-size="3.8535" font-family="Helvetica">
 5.824e
</text>
<path d="M212.909,210.052h 142.11" fill="none" stroke="black"/>
<path d="M212.909,204.513v 5.53858" fill="none" stroke="black"/>
<path d="M215.752,207.282v 2.76929" fill="none" stroke="black"/>
<path d="M218.594,207.282v 2.76929" fill="none" stroke="black"/>
<path d="M221.436,207.282v 2.76929" fill="none" stroke="black"/>
<path d="M224.278,207.282v 2.76929" fill="none" stroke="black"/>
<path d="M227.12,204.513v 5.53858" fill="none" stroke="black"/>
<path d="M229.963,207.282v 2.76929" fill="none" stroke="black"/>
<path d="M232.805,207.282v 2.76929" fill="none" stroke="black"/>
<path d="M235.647,207.282v 2.76929" fill="none" stroke="black"/>
<path d="M238.489,207.282v 2.76929" fill="none" stroke="black"/>
<path d="M241.331,204.513v 5.53858" fill="none" stroke="black"/>
<path d="M244.174,207.282v 2.76929" fill="none" stroke="black"/>
<path d="M247.016,207.282v 2.76929" fill="none" stroke="black"/>
<path d="M249.858,207.282v 2.76929" fill="none" stroke="black"/>
<path d="M252.7,207.282v 2.76929" fill="none" stroke="black"/>
<path d="M255.543,204.513v 5.53858" fill="none" stroke="black"/>
<path d="M258.385,207.282v 2.76929" fill="none" stroke="black"/>
<path d="M261.227,207.282v 2.76929" fill="none" stroke="black"/>
<path d="M264.069,207.282v 2.76929" fill="none" stroke="black"/>
<path d="M266.911,207.282v 2.76929" fill="none" stroke="black"/>
<path d="M269.754,204.513v 5.53858" fill="none" stroke="black"/>
<path d="M272.596,207.282v 2.76929" fill="none" stroke="black"/>
<path d="M275.438,207.282v 2.76929" fill="none" stroke="black"/>
<path d="M278.28,207.282v 2.76929" fill="none" stroke="black"/>
<path d="M281.122,207.282v 2.76929" fill="none" stroke="black"/>
<path d="M283.965,204.513v 5.53858" fill="none" stroke="black"/>
<path d="M286.807,207.282v 2.76929" fill="none" stroke="black"/>
<path d="M289.649,207.282v 2.76929" fill="none" stroke="black"/>
<path d="M292.491,207.282v 2.76929" fill="none" stroke="black"/>
<path d="M295.333,207.282v 2.76929" fill="none" stroke="black"/>
<path d="M298.176,204.513v 5.53858" fill="none" stroke="black"/>
<path d="M301.018,207.282v 2.76929" fill="none" stroke="black"/>
<path d="M303.86,207.282v 2.76929" fill="none" stroke="black"/>
<path d="M306.702,207.282v 2.76929" fill="none" stroke="black"/>
<path d="M309.544,207.282v 2.76929" fill="none" stroke="black"/>
<path d="M312.387,204.513v 5.53858" fill="none" stroke="black"/>
<path d="M315.229,207.282v 2.76929" fill="none" stroke="black"/>
<path d="M318.071,207.282v 2.76929" fill="none" stroke="black"/>
<path d="M320.913,207.282v 2.76929" fill="none" stroke="black"/>
<path d="M323.755,207.282v 2.76929" fill="none" stroke="black"/>
<path d="M326.598,204.513v 5.53858" fill="none" stroke="black"/>
<path d="M329.44,207.282v 2.76929" fill="none" stroke="black"/>
<path d="M332.282,207.282v 2.76929" fill="none" stroke="black"/>
<path d="M335.124,207.282v 2.76929" fill="none" stroke="black"/>
<path d="M337.966,207.282v 2.76929" fill="none" stroke="black"/>
<path d="M340.809,204.513v 5.53858" fill="none" stroke="black"/>
<path d="M343.651,207.282v 2.76929" fill="none" stroke="black"/>
<path d="M346.493,207.282v 2.76929" fill="none" stroke="black"/>
<path d="M349.335,207.282v 2.76929" fill="none" stroke="black"/>
<path d="M352.177,207.282v 2.76929" fill="none" stroke="black"/>
<path d="M355.02,204.513v 5.53858" fill="none" stroke="black"/>
<text xml:space="preserve" x="210.731" y="217.176" fill="black" font-size="6.20397" font-family="Helvetica">
0
</text>
<text xml:space="preserve" x="222.095" y="217.176" fill="black" font-size="6.20397" font-family="Helvetica">
0.5
</text>
<text xml:space="preserve" x="239.772" y="217.176" fill="black" font-size="6.20397" font-family="Helvetica">
1
</text>
<text xml:space="preserve" x="250.504" y="217.176" fill="black" font-size="6.20397" font-family="Helvetica">
1.5
</text>
<text xml:space="preserve" x="267.55" y="217.176" fill="black" font-size="6.20397" font-family="Helvetica">
2
</text>
<text xml:space="preserve" x="279.545" y="217.176" fill="black" font-size="6.20397" font-family="Helvetica">
2.5
</text>
<text xml:space="preserve" x="295.96" y="217.176" fill="black" font-size="6.20397" font-family="Helvetica">
3
</text>
<text xml:space="preserve" x="307.955" y="217.176" fill="black" font-size="6.20397" font-family="Helvetica">
3.5
</text>
<text xml:space="preserve" x="324.369" y="217.176" fill="black" font-size="6.20397" font-family="Helvetica">
4
</text>
<text xml:space="preserve" x="336.364" y="217.176" fill="black" font-size="6.20397" font-family="Helvetica">
4.5
</text>
<text xml:space="preserve" x="352.779" y="217.176" fill="black" font-size="6.20397" font-family="Helvetica">
5
</text>
<path d="M212.909,210.052v -184.619" fill="none" stroke="black"/>
<path d="M217.173,210.052h -4.26331" fill="none" stroke="black"/>
<path d="M215.041,203.796h -2.13165" fill="none" stroke="black"/>
<path d="M215.041,197.541h -2.13165" fill="none" stroke="black"/>
<path d="M215.041,191.286h -2.13165" fill="none" stroke="black"/>
<path d="M215.041,185.031h -2.13165" fill="none" stroke="black"/>
<path d="M217.173,178.775h -4.26331" fill="none" stroke="black"/>
<path d="M215.041,172.52h -2.13165" fill="none" stroke="black"/>
<path d="M215.041,166.265h -2.13165" fill="none" stroke="black"/>
<path d="M215.041,160.01h -2.13165" fill="none" stroke="black"/>
<path d="M215.041,153.754h -2.13165" fill="none" stroke="black"/>
<path d="M217.173,147.499h -4.26331" fill="none" stroke="black"/>
<path d="M215.041,141.244h -2.13165" fill="none" stroke="black"/>
<path d="M215.041,134.989h -2.13165" fill="none" stroke="black"/>
<path d="M215.041,128.733h -2.13165" fill="none" stroke="black"/>
<path d="M215.041,122.478h -2.13165" fill="none" stroke="black"/>
<path d="M217.173,116.223h -4.26331" fill="none" stroke="black"/>
<path d="M215.041,109.968h -2.13165" fill="none" stroke="black"/>
<path d="M215.041,103.712h -2.13165" fill="none" stroke="black"/>
<path d="M215.041,97.4572h -2.13165" fill="none" stroke="black"/>
<path d="M215.041,91.202h -2.13165" fill="none" stroke="black"/>
<path d="M217.173,84.9467h -4.26331" fill="none" stroke="black"/>
<path d="M215.041,78.6915h -2.13165" fill="none" stroke="black"/>
<path d="M215.041,72.4362h -2.13165" fill="none" stroke="black"/>
<path d="M215.041,66.181h -2.13165" fill="none" stroke="black"/>
<path d="M215.041,59.9257h -2.13165" fill="none" stroke="black"/>
<path d="M217.173,53.6705h -4.26331" fill="none" stroke="black"/>
<path d="M217.173,53.6705h -4.26331" fill="none" stroke="black"/>
<path d="M215.041,47.4152h -2.13165" fill="none" stroke="black"/>
<path d="M215.041,41.16h -2.13165" fill="none" stroke="black"/>
<path d="M215.041,34.9047h -2.13165" fill="none" stroke="black"/>
<path d="M215.041,28.6495h -2.13165" fill="none" stroke="black"/>
<text xml:space="preserve" x="208.837" y="212.125" fill="black" font-size="6.20397" font-family="Helvetica">
0
</text>
<text xml:space="preserve" x="196.211" y="181.19" fill="black" font-size="6.20397" font-family="Helvetica">
10000
</text>
<text xml:space="preserve" x="196.211" y="149.624" fill="black" font-size="6.20397" font-family="Helvetica">
20000
</text>
<text xml:space="preserve" x="196.211" y="118.689" fill="black" font-size="6.20397" font-family="Helvetica">
30000
</text>
<text xml:space="preserve" x="196.211" y="87.1227" fill="black" font-size="6.20397" font-family="Helvetica">
40000
</text>
<text xml:space="preserve" x="196.211" y="56.1879" fill="black" font-size="6.20397" font-family="Helvetica">
50000
</text>
<rect x="333.703" y="17.3552" width="35.5276" height="36.9239" fill="white"/>
<path d="M333.703,54.279h 35.5276" fill="none" stroke="black"/>
<path d="M369.231,54.279v -36.9239" fill="none" stroke="black"/>
<path d="M369.231,17.3552h -35.5276" fill="none" stroke="black"/>
<path d="M333.703,17.3552v 36.9239" fill="none" stroke="black"/>
<text xml:space="preserve" x="347.097" y="24.6216" fill="black" font-size="6.49731" font-family="Helvetica">
h2
</text>
<path d="M333.703,26.5861h 35.5276" fill="none" stroke="black"/>
<text xml:space="preserve" x="335.102" y="32.8289" fill="black" font-size="3.8535" font-family="Helvetica">
Entries 
</text>
<text xml:space="preserve" x="359.723" y="32.1975" fill="black" font-size="3.8535" font-family="Helvetica">
 1001
</text>
<text xml:space="preserve" x="335.102" y="42.2987" fill="black" font-size="3.8535" font-family="Helvetica">
Mean  
</text>
<text xml:space="preserve" x="356.567" y="41.6674" fill="black" font-size="3.8535" font-family="Helvetica">
 0.4936
</text>
<text xml:space="preserve" x="335.102" y="51.1373" fill="black" font-size="3.8535" font-family="Helvetica">
Std Dev   
</text>
<text xml:space="preserve" x="363.511" y="50.5059" fill="black" font-size="3.8535" font-family="Helvetica">
06
</text>
<text xml:space="preserve" x="361.617" y="50.5059" fill="black" font-size="3.8535" font-family="Times">
&#8722;
</text>
<text xml:space="preserve" x="350.885" y="50.5059" fill="black" font-size="3.8535" font-family="Helvetica">
 5.824e
</text>
<text xml:space="preserve" x="255.555" y="11.9952" fill="black" font-size="8.11887" font-family="Helvetica">
Energy of events
</text>
<rect x="384.122" y="2.35484" width="177.638" height="230.774" fill="white"/>
<rect x="401.886" y="25.4323" width="142.11" height="184.619" fill="white"/>
<rect x="401.886" y="25.4323" width="142.11" height="184.619" fill="none" stroke="black"/>
<rect x="401.886" y="25.4323" width="142.11" height="184.619" fill="white"/>
<rect x="401.886" y="25.4323" width="142.11" height="184.619" fill="none" stroke="black"/>
<path d="M418.229,208.887v -1.18853" fill="none" stroke="#000099"/>
<path d="M418.229,207.698v -1.18853" fill="none" stroke="#000099"/>
<path d="M417.518,207.698h 0.710551" fill="none" stroke="#000099"/>
<path d="M418.229,207.698h 0.710551" fill="none" stroke="#000099"/>
<g stroke="black" stroke-width="1" fill="none">
<line x1="417.229" y1="207.698" x2="418.229" y2="207.698"/>
</g>
<path d="M419.65,194.734v -3.26939" fill="none" stroke="#000099"/>
<path d="M419.65,191.465v -3.26939" fill="none" stroke="#000099"/>
<path d="M418.939,191.465h 0.710551" fill="none" stroke="#000099"/>
<path d="M419.65,191.465h 0.710551" fill="none" stroke="#000099"/>
<g stroke="black" stroke-width="1" fill="none">
<line x1="418.65" y1="191.465" x2="419.65" y2="191.465"/>
</g>
<path d="M421.071,174.203v -5.0355" fill="none" stroke="#000099"/>
<path d="M421.071,169.167v -5.0355" fill="none" stroke="#000099"/>
<path d="M420.36,169.167h 0.710551" fill="none" stroke="#000099"/>
<path d="M421.071,169.167h 0.710551" fill="none" stroke="#000099"/>
<g stroke="black" stroke-width="1" fill="none">
<line x1="420.071" y1="169.167" x2="421.071" y2="169.167"/>
</g>
<path d="M422.492,93.514v -9.28541" fill="none" stroke="#000099"/>
<path d="M422.492,84.2286v -9.28541" fill="none" stroke="#000099"/>
<path d="M421.781,84.2286h 0.710551" fill="none" stroke="#000099"/>
<path d="M422.492,84.2286h 0.710551" fill="none" stroke="#000099"/>
<g stroke="black" stroke-width="1" fill="none">
<line x1="421.492" y1="84.2286" x2="422.492" y2="84.2286"/>
</g>
<path d="M423.913,55.8747v -10.8255" fill="none" stroke="#000099"/>
<path d="M423.913,45.0492v -10.8255" fill="none" stroke="#000099"/>
<path d="M423.202,45.0492h 0.710551" fill="none" stroke="#000099"/>
<path d="M423.913,45.0492h 0.710551" fill="none" stroke="#000099"/>
<g stroke="black" stroke-width="1" fill="none">
<line x1="422.913" y1="45.0492" x2="423.913" y2="45.0492"/>
</g>
<path d="M425.334,56.3348v -10.9014" fill="none" stroke="#000099"/>
<path d="M425.334,45.4334v -10.9014" fill="none" stroke="#000099"/>
<path d="M424.623,45.4334h 0.710551" fill="none" stroke="#000099"/>
<path d="M425.334,45.4334h 0.710551" fill="none" stroke="#000099"/>
<g stroke="black" stroke-width="1" fill="none">
<line x1="424.334" y1="45.4334" x2="425.334" y2="45.4334"/>
</g>
<path d="M426.755,134.17v -7.60459" fill="none" stroke="#000099"/>
<path d="M426.755,126.566v -7.60459" fill="none" stroke="#000099"/>
<path d="M426.045,126.566h 0.710551" fill="none" stroke="#000099"/>
<path d="M426.755,126.566h 0.710551" fill="none" stroke="#000099"/>
<g stroke="black" stroke-width="1" fill="none">
<line x1="425.755" y1="126.566" x2="426.755" y2="126.566"/>
</g>
<path d="M428.176,178.814v -4.96387" fill="none" stroke="#000099"/>
<path d="M428.176,173.85v -4.96387" fill="none" stroke="#000099"/>
<path d="M427.466,173.85h 0.710551" fill="none" stroke="#000099"/>
<path d="M428.176,173.85h 0.710551" fill="none" stroke="#000099"/>
<g stroke="black" stroke-width="1" fill="none">
<line x1="427.176" y1="173.85" x2="428.176" y2="173.85"/>
</g>
<path d="M429.597,200.346v -2.9503" fill="none" stroke="#000099"/>
<path d="M429.597,197.396v -2.9503" fill="none" stroke="#000099"/>
<path d="M428.887,197.396h 0.710551" fill="none" stroke="#000099"/>
<path d="M429.597,197.396h 0.710551" fill="none" stroke="#000099"/>
<g stroke="black" stroke-width="1" fill="none">
<line x1="428.597" y1="197.396" x2="429.597" y2="197.396"/>
</g>
<path d="M431.018,208.181v -1.32351" fill="none" stroke="#000099"/>
<path d="M431.018,206.858v -1.32351" fill="none" stroke="#000099"/>
<path d="M430.308,206.858h 0.710551" fill="none" stroke="#000099"/>
<path d="M431.018,206.858h 0.710551" fill="none" stroke="#000099"/>
<g stroke="black" stroke-width="1" fill="none">
<line x1="430.018" y1="206.858" x2="431.018" y2="206.858"/>
</g>
<path d="M432.44,210.052v -0.576344" fill="none" stroke="#000099"/>
<path d="M432.44,209.475v -0.576344" fill="none" stroke="#000099"/>
<path d="M431.729,209.475h 0.710551" fill="none" stroke="#000099"/>
<path d="M432.44,209.475h 0.710551" fill="none" stroke="#000099"/>
<g stroke="black" stroke-width="1" fill="none">
<line x1="431.44" y1="209.475" x2="432.44" y2="209.475"/>
</g>
<path d="M436.703,210.052v -0.348208" fill="none" stroke="#000099"/>
<path d="M436.703,209.703v -0.348208" fill="none" stroke="#000099"/>
<path d="M435.992,209.703h 0.710551" fill="none" stroke="#000099"/>
<path d="M436.703,209.703h 0.710551" fill="none" stroke="#000099"/>
<g stroke="black" stroke-width="1" fill="none">
<line x1="435.703" y1="209.703" x2="436.703" y2="209.703"/>
</g>
<rect x="522.68" y="17.3552" width="35.5276" height="36.9239" fill="white"/>
<path d="M522.68,54.279h 35.5276" fill="none" stroke="black"/>
<path d="M558.207,54.279v -36.9239" fill="none" stroke="black"/>
<path d="M558.207,17.3552h -35.5276" fill="none" stroke="black"/>
<path d="M522.68,17.3552v 36.9239" fill="none" stroke="black"/>
<text xml:space="preserve" x="536.494" y="23.9903" fill="black" font-size="6.49731" font-family="Helvetica">
h3
</text>
<path d="M522.68,26.5861h 35.5276" fill="none" stroke="black"/>
<text xml:space="preserve" x="523.868" y="32.8289" fill="black" font-size="4.19024" font-family="Helvetica">
Entries 
</text>
<text xml:space="preserve" x="547.227" y="32.8289" fill="black" font-size="4.19024" font-family="Helvetica">
 1001
</text>
<text xml:space="preserve" x="523.868" y="42.2987" fill="black" font-size="4.19024" font-family="Helvetica">
Mean  
</text>
<text xml:space="preserve" x="543.439" y="42.2987" fill="black" font-size="4.19024" font-family="Helvetica">
 0.4758
</text>
<text xml:space="preserve" x="523.868" y="51.1373" fill="black" font-size="4.19024" font-family="Helvetica">
Std Dev   
</text>
<text xml:space="preserve" x="540.914" y="51.1373" fill="black" font-size="4.19024" font-family="Helvetica">
 0.04566
</text>
<path d="M401.886,210.052h 142.11" fill="none" stroke="black"/>
<path d="M401.886,204.513v 5.53858" fill="none" stroke="black"/>
<path d="M406.623,207.282v 2.76929" fill="none" stroke="black"/>
<path d="M411.36,207.282v 2.76929" fill="none" stroke="black"/>
<path d="M416.097,207.282v 2.76929" fill="none" stroke="black"/>
<path d="M420.834,207.282v 2.76929" fill="none" stroke="black"/>
<path d="M425.571,204.513v 5.53858" fill="none" stroke="black"/>
<path d="M430.308,207.282v 2.76929" fill="none" stroke="black"/>
<path d="M435.045,207.282v 2.76929" fill="none" stroke="black"/>
<path d="M439.782,207.282v 2.76929" fill="none" stroke="black"/>
<path d="M444.519,207.282v 2.76929" fill="none" stroke="black"/>
<path d="M449.256,204.513v 5.53858" fill="none" stroke="black"/>
<path d="M453.993,207.282v 2.76929" fill="none" stroke="black"/>
<path d="M458.73,207.282v 2.76929" fill="none" stroke="black"/>
<path d="M463.467,207.282v 2.76929" fill="none" stroke="black"/>
<path d="M468.204,207.282v 2.76929" fill="none" stroke="black"/>
<path d="M472.941,204.513v 5.53858" fill="none" stroke="black"/>
<path d="M477.678,207.282v 2.76929" fill="none" stroke="black"/>
<path d="M482.415,207.282v 2.76929" fill="none" stroke="black"/>
<path d="M487.152,207.282v 2.76929" fill="none" stroke="black"/>
<path d="M491.889,207.282v 2.76929" fill="none" stroke="black"/>
<path d="M496.626,204.513v 5.53858" fill="none" stroke="black"/>
<path d="M501.363,207.282v 2.76929" fill="none" stroke="black"/>
<path d="M506.1,207.282v 2.76929" fill="none" stroke="black"/>
<path d="M510.837,207.282v 2.76929" fill="none" stroke="black"/>
<path d="M515.574,207.282v 2.76929" fill="none" stroke="black"/>
<path d="M520.311,204.513v 5.53858" fill="none" stroke="black"/>
<path d="M525.048,207.282v 2.76929" fill="none" stroke="black"/>
<path d="M529.785,207.282v 2.76929" fill="none" stroke="black"/>
<path d="M534.522,207.282v 2.76929" fill="none" stroke="black"/>
<path d="M539.259,207.282v 2.76929" fill="none" stroke="black"/>
<path d="M543.996,204.513v 5.53858" fill="none" stroke="black"/>
<path d="M543.996,204.513v 5.53858" fill="none" stroke="black"/>
<text xml:space="preserve" x="399.497" y="217.176" fill="black" font-size="6.20397" font-family="Helvetica">
0
</text>
<text xml:space="preserve" x="420.962" y="217.176" fill="black" font-size="6.20397" font-family="Helvetica">
0.5
</text>
<text xml:space="preserve" x="447.478" y="217.176" fill="black" font-size="6.20397" font-family="Helvetica">
1
</text>
<text xml:space="preserve" x="468.311" y="217.176" fill="black" font-size="6.20397" font-family="Helvetica">
1.5
</text>
<text xml:space="preserve" x="494.196" y="217.176" fill="black" font-size="6.20397" font-family="Helvetica">
2
</text>
<text xml:space="preserve" x="515.661" y="217.176" fill="black" font-size="6.20397" font-family="Helvetica">
2.5
</text>
<text xml:space="preserve" x="541.545" y="217.176" fill="black" font-size="6.20397" font-family="Helvetica">
3
</text>
<path d="M401.886,210.052v -184.619" fill="none" stroke="black"/>
<path d="M406.149,210.052h -4.26331" fill="none" stroke="black"/>
<path d="M404.017,204.048h -2.13165" fill="none" stroke="black"/>
<path d="M404.017,198.044h -2.13165" fill="none" stroke="black"/>
<path d="M404.017,192.041h -2.13165" fill="none" stroke="black"/>
<path d="M406.149,186.037h -4.26331" fill="none" stroke="black"/>
<path d="M404.017,180.034h -2.13165" fill="none" stroke="black"/>
<path d="M404.017,174.03h -2.13165" fill="none" stroke="black"/>
<path d="M404.017,168.027h -2.13165" fill="none" stroke="black"/>
<path d="M406.149,162.023h -4.26331" fill="none" stroke="black"/>
<path d="M404.017,156.019h -2.13165" fill="none" stroke="black"/>
<path d="M404.017,150.016h -2.13165" fill="none" stroke="black"/>
<path d="M404.017,144.012h -2.13165" fill="none" stroke="black"/>
<path d="M406.149,138.009h -4.26331" fill="none" stroke="black"/>
<path d="M404.017,132.005h -2.13165" fill="none" stroke="black"/>
<path d="M404.017,126.001h -2.13165" fill="none" stroke="black"/>
<path d="M404.017,119.998h -2.13165" fill="none" stroke="black"/>
<path d="M406.149,113.994h -4.26331" fill="none" stroke="black"/>
<path d="M404.017,107.991h -2.13165" fill="none" stroke="black"/>
<path d="M404.017,101.987h -2.13165" fill="none" stroke="black"/>
<path d="M404.017,95.9836h -2.13165" fill="none" stroke="black"/>
<path d="M406.149,89.98h -4.26331" fill="none" stroke="black"/>
<path d="M404.017,83.9764h -2.13165" fill="none" stroke="black"/>
<path d="M404.017,77.9728h -2.13165" fill="none" stroke="black"/>
<path d="M404.017,71.9693h -2.13165" fill="none" stroke="black"/>
<path d="M406.149,65.9657h -4.26331" fill="none" stroke="black"/>
<path d="M404.017,59.9621h -2.13165" fill="none" stroke="black"/>
<path d="M404.017,53.9585h -2.13165" fill="none" stroke="black"/>
<path d="M404.017,47.9549h -2.13165" fill="none" stroke="black"/>
<path d="M406.149,41.9513h -4.26331" fill="none" stroke="black"/>
<path d="M406.149,41.9513h -4.26331" fill="none" stroke="black"/>
<path d="M404.017,35.9478h -2.13165" fill="none" stroke="black"/>
<path d="M404.017,29.9442h -2.13165" fill="none" stroke="black"/>
<text xml:space="preserve" x="397.603" y="212.125" fill="black" font-size="6.20397" font-family="Helvetica">
0
</text>
<text xml:space="preserve" x="388.133" y="188.135" fill="black" font-size="6.20397" font-family="Helvetica">
2000
</text>
<text xml:space="preserve" x="388.133" y="164.144" fill="black" font-size="6.20397" font-family="Helvetica">
4000
</text>
<text xml:space="preserve" x="388.133" y="140.154" fill="black" font-size="6.20397" font-family="Helvetica">
6000
</text>
<text xml:space="preserve" x="388.133" y="116.164" fill="black" font-size="6.20397" font-family="Helvetica">
8000
</text>
<text xml:space="preserve" x="384.976" y="92.1733" fill="black" font-size="6.20397" font-family="Helvetica">
10000
</text>
<text xml:space="preserve" x="384.976" y="68.183" fill="black" font-size="6.20397" font-family="Helvetica">
12000
</text>
<text xml:space="preserve" x="384.976" y="44.1927" fill="black" font-size="6.20397" font-family="Helvetica">
14000
</text>
<rect x="522.68" y="17.3552" width="35.5276" height="36.9239" fill="white"/>
<path d="M522.68,54.279h 35.5276" fill="none" stroke="black"/>
<path d="M558.207,54.279v -36.9239" fill="none" stroke="black"/>
<path d="M558.207,17.3552h -35.5276" fill="none" stroke="black"/>
<path d="M522.68,17.3552v 36.9239" fill="none" stroke="black"/>
<text xml:space="preserve" x="536.494" y="23.9903" fill="black" font-size="6.49731" font-family="Helvetica">
h3
</text>
<path d="M522.68,26.5861h 35.5276" fill="none" stroke="black"/>
<text xml:space="preserve" x="523.868" y="32.8289" fill="black" font-size="4.19024" font-family="Helvetica">
Entries 
</text>
<text xml:space="preserve" x="547.227" y="32.8289" fill="black" font-size="4.19024" font-family="Helvetica">
 1001
</text>
<text xml:space="preserve" x="523.868" y="42.2987" fill="black" font-size="4.19024" font-family="Helvetica">
Mean  
</text>
<text xml:space="preserve" x="543.439" y="42.2987" fill="black" font-size="4.19024" font-family="Helvetica">
 0.4758
</text>
<text xml:space="preserve" x="523.868" y="51.1373" fill="black" font-size="4.19024" font-family="Helvetica">
Std Dev   
</text>
<text xml:space="preserve" x="540.914" y="51.1373" fill="black" font-size="4.19024" font-family="Helvetica">
 0.04566
</text>
<text xml:space="preserve" x="440.533" y="12.6265" fill="black" font-size="8.11887" font-family="Helvetica">
Momenta of events
</text></svg>
