<?xml version="1.0" standalone="no"?>
<svg width="567.429" height="235.984" viewBox="0 0 567.429 235.984" xmlns="http://www.w3.org/2000/svg">
<title>
/home/olaralex/Asztal/c++advanced/particleHIJINGadatok/pi_nul.svg
</title>
<desc>
Creator: ROOT Version 6.08/04
CreationDate: Thu Feb 23 23:33:10 2017</desc>
<defs>
</defs>
<rect x="0.5" y="0" width="566.929" height="235.484" fill="white"/>
<rect x="6.16929" y="2.35484" width="177.638" height="230.774" fill="white"/>
<rect x="23.9331" y="25.4323" width="142.11" height="184.619" fill="white"/>
<rect x="23.9331" y="25.4323" width="142.11" height="184.619" fill="none" stroke="black"/>
<rect x="23.9331" y="25.4323" width="142.11" height="184.619" fill="white"/>
<rect x="23.9331" y="25.4323" width="142.11" height="184.619" fill="none" stroke="black"/>
<path d="M23.9331,190.515h 0.14211v 19.5364h 30.1274v -19.5364h 0.14211v 19.5364h 4.40542v -19.5364h 0.14211v 19.5364h 1.56321v -19.5364h 0.14211v 19.5364h 0.426331v -19.5364h 0.14211v 19.5364h 0.994772v -19.5364h 0.14211v 19.5364h 0.568441v
 -19.5364h 0.28422v 19.5364h 0.28422v -39.0729h 0.14211v 39.0729h 0.994772v -19.5364h 0.14211v 19.5364h 0.852661v -19.5364h 0.14211v 19.5364h 0.568441v -58.6093h 0.14211v 58.6093h 0.14211v -19.5364h 0.14211v 19.5364h 0.710551v -19.5364h 0.28422v
 19.5364h 0.28422v -19.5364h 0.14211v 19.5364h 0.28422v -19.5364h 0.14211v -58.6093h 0.14211v 78.1458h 0.568441v -39.0729h 0.14211v 39.0729h 0.14211v -19.5364h 0.14211v 19.5364h 0.28422v -19.5364h 0.14211v 19.5364h 0.28422v -19.5364h 0.14211v
 19.5364h 0.28422v -19.5364h 0.14211v -19.5364h 0.28422v 39.0729h 0.14211v -19.5364h 0.426331v 19.5364h 0.14211v -19.5364h 0.14211v 19.5364h 0.28422v -39.0729h 0.14211v 19.5364h 0.14211v 19.5364h 0.28422v -19.5364h 0.14211v -19.5364h 0.14211v
 39.0729h 0.28422v -19.5364h 0.426331v -19.5364h 0.14211v 19.5364h 0.14211v -19.5364h 0.14211v -19.5364h 0.14211v 19.5364h 0.426331v 19.5364h 0.14211v 19.5364h 0.28422v -19.5364h 0.14211v 19.5364h 0.14211v -19.5364h 0.426331v 19.5364h 0.14211v
 -39.0729h 0.14211v 39.0729h 0.14211v -19.5364h 0.28422v 19.5364h 0.14211v -39.0729h 0.28422v 39.0729h 0.14211v -19.5364h 0.28422v -58.6093h 0.14211v 39.0729h 0.28422v 19.5364h 0.426331v -19.5364h 0.14211v 39.0729h 0.28422v -58.6093h 0.14211v
 39.0729h 0.14211v -19.5364h 0.28422v 39.0729h 0.14211v -39.0729h 0.14211v -19.5364h 0.14211v -58.6093h 0.14211v 39.0729h 0.14211v 19.5364h 0.14211v 19.5364h 0.14211v -19.5364h 0.14211v 19.5364h 0.710551v -78.1458h 0.14211v 58.6093h 0.28422v 39.0729h
 0.14211v -39.0729h 0.28422v 39.0729h 0.14211v -78.1458h 0.14211v 78.1458h 0.14211v -39.0729h 0.28422v -39.0729h 0.28422v 39.0729h 0.14211v -19.5364h 0.14211v 19.5364h 0.14211v 39.0729h 0.14211v -78.1458h 0.28422v 39.0729h 0.14211v -19.5364h 0.14211v
 39.0729h 0.14211v -39.0729h 0.28422v 19.5364h 0.14211v -39.0729h 0.14211v 39.0729h 0.14211v 19.5364h 0.14211v -117.219h 0.14211v 117.219h 0.14211v -39.0729h 0.28422v 58.6093h 0.14211v -58.6093h 0.14211v 58.6093h 0.14211v -19.5364h 0.14211v -19.5364h
 0.14211v 39.0729h 0.14211v -19.5364h 0.14211v -19.5364h 0.14211v -39.0729h 0.28422v -19.5364h 0.14211v 58.6093h 0.14211v 19.5364h 0.28422v -19.5364h 0.28422v 39.0729h 0.14211v 19.5364h 0.14211v -78.1458h 0.14211v 39.0729h 0.14211v -39.0729h 0.14211v
 -19.5364h 0.14211v 19.5364h 0.14211v 19.5364h 0.14211v 19.5364h 0.14211v 19.5364h 0.14211v -39.0729h 0.14211v -39.0729h 0.14211v -58.6093h 0.14211v 78.1458h 0.14211v -19.5364h 0.14211v 39.0729h 0.14211v 39.0729h 0.14211v -19.5364h 0.14211v -39.0729h
 0.14211v -19.5364h 0.14211v 39.0729h 0.28422v -19.5364h 0.14211v -39.0729h 0.14211v 39.0729h 0.14211v -78.1458h 0.14211v 78.1458h 0.14211v 58.6093h 0.14211v -58.6093h 0.14211v 58.6093h 0.14211v -19.5364h 0.28422v -19.5364h 0.14211v -39.0729h
 0.14211v -19.5364h 0.14211v 39.0729h 0.14211v -58.6093h 0.14211v 58.6093h 0.28422v 19.5364h 0.14211v 39.0729h 0.14211v -58.6093h 0.28422v -19.5364h 0.14211v 78.1458h 0.14211v -97.6822h 0.14211v -19.5364h 0.28422v 39.0729h 0.14211v 58.6093h 0.14211v
 39.0729h 0.14211v -175.828h 0.14211v 97.6822h 0.28422v 78.1458h 0.14211v -97.6822h 0.14211v 19.5364h 0.14211v -78.1458h 0.14211v 117.219h 0.14211v -19.5364h 0.14211v -19.5364h 0.14211v 58.6093h 0.14211v -19.5364h 0.14211v -39.0729h 0.28422v 39.0729h
 0.14211v -39.0729h 0.14211v -39.0729h 0.14211v 78.1458h 0.14211v -39.0729h 0.28422v 78.1458h 0.14211v -19.5364h 0.14211v -58.6093h 0.426331v -19.5364h 0.14211v 39.0729h 0.14211v 19.5364h 0.14211v -19.5364h 0.14211v -19.5364h 0.426331v 39.0729h
 0.28422v -58.6093h 0.14211v 58.6093h 0.14211v -19.5364h 0.14211v -19.5364h 0.14211v 58.6093h 0.14211v -19.5364h 0.14211v -39.0729h 0.14211v -39.0729h 0.14211v 97.6822h 0.14211v -19.5364h 0.14211v -39.0729h 0.14211v 39.0729h 0.14211v 39.0729h
 0.14211v -58.6093h 0.14211v 39.0729h 0.28422v -58.6093h 0.14211v 39.0729h 0.28422v -58.6093h 0.28422v 39.0729h 0.14211v 39.0729h 0.14211v -58.6093h 0.14211v 39.0729h 0.28422v -39.0729h 0.14211v 19.5364h 0.14211v 39.0729h 0.14211v -58.6093h 0.14211v
 19.5364h 0.14211v 39.0729h 0.14211v -39.0729h 0.14211v 39.0729h 0.14211v -78.1458h 0.14211v 58.6093h 0.14211v -19.5364h 0.14211v -19.5364h 0.14211v 58.6093h 0.28422v -58.6093h 0.14211v 78.1458h 0.14211v -136.755h 0.28422v 97.6822h 0.28422v -58.6093h
 0.14211v 58.6093h 0.28422v -39.0729h 0.14211v -19.5364h 0.14211v 78.1458h 0.14211v -19.5364h 0.28422v -19.5364h 0.28422v -58.6093h 0.14211v 39.0729h 0.14211v 19.5364h 0.14211v 19.5364h 0.14211v 19.5364h 0.28422v -78.1458h 0.14211v 19.5364h 0.14211v
 58.6093h 0.14211v -78.1458h 0.14211v 58.6093h 0.14211v -19.5364h 0.14211v -19.5364h 0.14211v 39.0729h 0.14211v 19.5364h 0.14211v -39.0729h 0.14211v 19.5364h 0.14211v -19.5364h 0.14211v 39.0729h 0.14211v -39.0729h 0.14211v 39.0729h 0.14211v -58.6093h
 0.14211v 58.6093h 0.14211v -39.0729h 0.14211v 19.5364h 0.14211v 19.5364h 0.14211v -39.0729h 0.14211v 19.5364h 0.14211v -19.5364h 0.14211v 19.5364h 0.28422v -39.0729h 0.14211v 39.0729h 0.14211v 19.5364h 0.14211v -78.1458h 0.14211v 78.1458h 0.14211v
 -58.6093h 0.14211v 78.1458h 0.14211v -19.5364h 0.28422v 19.5364h 0.14211v -19.5364h 0.28422v -19.5364h 0.14211v 19.5364h 0.28422v -19.5364h 0.14211v -58.6093h 0.14211v 58.6093h 0.14211v 19.5364h 0.14211v -19.5364h 0.28422v 39.0729h 0.426331v
 -39.0729h 0.14211v 39.0729h 0.28422v -19.5364h 0.14211v -19.5364h 0.14211v 19.5364h 0.28422v 19.5364h 0.14211v -19.5364h 0.14211v -58.6093h 0.14211v 39.0729h 0.14211v 19.5364h 0.14211v -39.0729h 0.28422v 19.5364h 0.14211v -19.5364h 0.14211v 19.5364h
 0.14211v -19.5364h 0.28422v 39.0729h 0.28422v -19.5364h 0.14211v -39.0729h 0.14211v 58.6093h 0.14211v -39.0729h 0.14211v 58.6093h 0.14211v -39.0729h 0.14211v 39.0729h 0.14211v -39.0729h 0.28422v 39.0729h 0.426331v -19.5364h 0.14211v -19.5364h
 0.14211v 19.5364h 0.14211v 19.5364h 0.28422v -78.1458h 0.14211v 39.0729h 0.14211v 19.5364h 0.14211v 19.5364h 0.14211v -19.5364h 0.14211v 19.5364h 0.14211v -39.0729h 0.28422v 39.0729h 0.14211v -19.5364h 0.28422v -39.0729h 0.28422v 39.0729h 0.28422v
 19.5364h 0.14211v -19.5364h 0.426331v -19.5364h 0.28422v 39.0729h 0.426331v -39.0729h 0.14211v 39.0729h 0.710551v -19.5364h 0.14211v 19.5364h 0.28422v -19.5364h 0.14211v 19.5364h 0.28422v -19.5364h 0.14211v -39.0729h 0.14211v 58.6093h 1.13688v
 -19.5364h 0.426331v 19.5364h 0.28422v -19.5364h 0.28422v 19.5364h 0.14211v -19.5364h 0.14211v 19.5364h 0.710551v -39.0729h 0.14211v 39.0729h 0.14211v -19.5364h 0.14211v -19.5364h 0.14211v 39.0729h 0.14211v -19.5364h 0.14211v 19.5364h 0.14211v
 -19.5364h 0.14211v -19.5364h 0.14211v 39.0729h 0.14211v -19.5364h 0.14211v 19.5364h 0.28422v -19.5364h 0.14211v 19.5364h 0.14211v -19.5364h 0.14211v 19.5364h 0.14211v -19.5364h 0.28422v 19.5364h 0.852661v -19.5364h 0.14211v 19.5364h 0.852661v
 -19.5364h 0.14211v 19.5364h 0.568441v -19.5364h 0.14211v 19.5364h 0.426331v -19.5364h 0.14211v 19.5364h 0.14211v -19.5364h 0.14211v 19.5364h 0.994772v -19.5364h 0.426331v 19.5364h 0.14211v -19.5364h 0.14211v 19.5364h 0.28422v -39.0729h 0.14211v
 39.0729h 0.710551v -19.5364h 0.14211v 19.5364h 1.13688v -19.5364h 0.14211v 19.5364h 1.70532v -19.5364h 0.14211v 19.5364h 0.994772v -19.5364h 0.14211v 19.5364h 2.98431v -19.5364h 0.14211v 19.5364h 1.56321v -19.5364h 0.14211v 19.5364h 4.54753v
 -19.5364h 0.14211v 19.5364h 13.0741" fill="none" stroke="#000099"/>
<rect x="144.727" y="17.3552" width="35.5276" height="36.9239" fill="white"/>
<path d="M144.727,54.279h 35.5276" fill="none" stroke="black"/>
<path d="M180.254,54.279v -36.9239" fill="none" stroke="black"/>
<path d="M180.254,17.3552h -35.5276" fill="none" stroke="black"/>
<path d="M144.727,17.3552v 36.9239" fill="none" stroke="black"/>
<text xml:space="preserve" x="158.962" y="24.6216" fill="black" font-size="6.49731" font-family="Helvetica">
h1
</text>
<path d="M144.727,26.5861h 35.5276" fill="none" stroke="black"/>
<text xml:space="preserve" x="146.336" y="32.8289" fill="black" font-size="4.455" font-family="Helvetica">
Entries 
</text>
<text xml:space="preserve" x="169.064" y="32.8289" fill="black" font-size="4.455" font-family="Helvetica">
 1001
</text>
<text xml:space="preserve" x="146.336" y="42.2987" fill="black" font-size="4.455" font-family="Helvetica">
Mean  
</text>
<text xml:space="preserve" x="167.17" y="42.2987" fill="black" font-size="4.455" font-family="Helvetica">
    519
</text>
<text xml:space="preserve" x="146.336" y="51.1373" fill="black" font-size="4.455" font-family="Helvetica">
Std Dev   
</text>
<text xml:space="preserve" x="165.907" y="51.1373" fill="black" font-size="4.455" font-family="Helvetica">
  110.3
</text>
<path d="M23.9331,210.052h 142.11" fill="none" stroke="black"/>
<path d="M23.9331,204.513v 5.53858" fill="none" stroke="black"/>
<path d="M26.7753,207.282v 2.76929" fill="none" stroke="black"/>
<path d="M29.6175,207.282v 2.76929" fill="none" stroke="black"/>
<path d="M32.4597,207.282v 2.76929" fill="none" stroke="black"/>
<path d="M35.3019,207.282v 2.76929" fill="none" stroke="black"/>
<path d="M38.1441,204.513v 5.53858" fill="none" stroke="black"/>
<path d="M40.9863,207.282v 2.76929" fill="none" stroke="black"/>
<path d="M43.8285,207.282v 2.76929" fill="none" stroke="black"/>
<path d="M46.6707,207.282v 2.76929" fill="none" stroke="black"/>
<path d="M49.5129,207.282v 2.76929" fill="none" stroke="black"/>
<path d="M52.3551,204.513v 5.53858" fill="none" stroke="black"/>
<path d="M55.1973,207.282v 2.76929" fill="none" stroke="black"/>
<path d="M58.0395,207.282v 2.76929" fill="none" stroke="black"/>
<path d="M60.8817,207.282v 2.76929" fill="none" stroke="black"/>
<path d="M63.7239,207.282v 2.76929" fill="none" stroke="black"/>
<path d="M66.5661,204.513v 5.53858" fill="none" stroke="black"/>
<path d="M69.4083,207.282v 2.76929" fill="none" stroke="black"/>
<path d="M72.2505,207.282v 2.76929" fill="none" stroke="black"/>
<path d="M75.0928,207.282v 2.76929" fill="none" stroke="black"/>
<path d="M77.935,207.282v 2.76929" fill="none" stroke="black"/>
<path d="M80.7772,204.513v 5.53858" fill="none" stroke="black"/>
<path d="M83.6194,207.282v 2.76929" fill="none" stroke="black"/>
<path d="M86.4616,207.282v 2.76929" fill="none" stroke="black"/>
<path d="M89.3038,207.282v 2.76929" fill="none" stroke="black"/>
<path d="M92.146,207.282v 2.76929" fill="none" stroke="black"/>
<path d="M94.9882,204.513v 5.53858" fill="none" stroke="black"/>
<path d="M97.8304,207.282v 2.76929" fill="none" stroke="black"/>
<path d="M100.673,207.282v 2.76929" fill="none" stroke="black"/>
<path d="M103.515,207.282v 2.76929" fill="none" stroke="black"/>
<path d="M106.357,207.282v 2.76929" fill="none" stroke="black"/>
<path d="M109.199,204.513v 5.53858" fill="none" stroke="black"/>
<path d="M112.041,207.282v 2.76929" fill="none" stroke="black"/>
<path d="M114.884,207.282v 2.76929" fill="none" stroke="black"/>
<path d="M117.726,207.282v 2.76929" fill="none" stroke="black"/>
<path d="M120.568,207.282v 2.76929" fill="none" stroke="black"/>
<path d="M123.41,204.513v 5.53858" fill="none" stroke="black"/>
<path d="M126.252,207.282v 2.76929" fill="none" stroke="black"/>
<path d="M129.095,207.282v 2.76929" fill="none" stroke="black"/>
<path d="M131.937,207.282v 2.76929" fill="none" stroke="black"/>
<path d="M134.779,207.282v 2.76929" fill="none" stroke="black"/>
<path d="M137.621,204.513v 5.53858" fill="none" stroke="black"/>
<path d="M140.463,207.282v 2.76929" fill="none" stroke="black"/>
<path d="M143.306,207.282v 2.76929" fill="none" stroke="black"/>
<path d="M146.148,207.282v 2.76929" fill="none" stroke="black"/>
<path d="M148.99,207.282v 2.76929" fill="none" stroke="black"/>
<path d="M151.832,204.513v 5.53858" fill="none" stroke="black"/>
<path d="M154.674,207.282v 2.76929" fill="none" stroke="black"/>
<path d="M157.517,207.282v 2.76929" fill="none" stroke="black"/>
<path d="M160.359,207.282v 2.76929" fill="none" stroke="black"/>
<path d="M163.201,207.282v 2.76929" fill="none" stroke="black"/>
<path d="M166.043,204.513v 5.53858" fill="none" stroke="black"/>
<text xml:space="preserve" x="21.965" y="217.176" fill="black" font-size="6.20397" font-family="Helvetica">
0
</text>
<text xml:space="preserve" x="32.6975" y="217.176" fill="black" font-size="6.20397" font-family="Helvetica">
100
</text>
<text xml:space="preserve" x="47.218" y="217.176" fill="black" font-size="6.20397" font-family="Helvetica">
200
</text>
<text xml:space="preserve" x="61.1071" y="217.176" fill="black" font-size="6.20397" font-family="Helvetica">
300
</text>
<text xml:space="preserve" x="75.6276" y="217.176" fill="black" font-size="6.20397" font-family="Helvetica">
400
</text>
<text xml:space="preserve" x="89.5167" y="217.176" fill="black" font-size="6.20397" font-family="Helvetica">
500
</text>
<text xml:space="preserve" x="104.037" y="217.176" fill="black" font-size="6.20397" font-family="Helvetica">
600
</text>
<text xml:space="preserve" x="117.926" y="217.176" fill="black" font-size="6.20397" font-family="Helvetica">
700
</text>
<text xml:space="preserve" x="132.447" y="217.176" fill="black" font-size="6.20397" font-family="Helvetica">
800
</text>
<text xml:space="preserve" x="146.336" y="217.176" fill="black" font-size="6.20397" font-family="Helvetica">
900
</text>
<text xml:space="preserve" x="159.594" y="217.176" fill="black" font-size="6.20397" font-family="Helvetica">
1000
</text>
<path d="M23.9331,210.052v -184.619" fill="none" stroke="black"/>
<path d="M28.1964,210.052h -4.26331" fill="none" stroke="black"/>
<path d="M26.0647,206.144h -2.13165" fill="none" stroke="black"/>
<path d="M26.0647,202.237h -2.13165" fill="none" stroke="black"/>
<path d="M26.0647,198.33h -2.13165" fill="none" stroke="black"/>
<path d="M26.0647,194.423h -2.13165" fill="none" stroke="black"/>
<path d="M28.1964,190.515h -4.26331" fill="none" stroke="black"/>
<path d="M26.0647,186.608h -2.13165" fill="none" stroke="black"/>
<path d="M26.0647,182.701h -2.13165" fill="none" stroke="black"/>
<path d="M26.0647,178.793h -2.13165" fill="none" stroke="black"/>
<path d="M26.0647,174.886h -2.13165" fill="none" stroke="black"/>
<path d="M28.1964,170.979h -4.26331" fill="none" stroke="black"/>
<path d="M26.0647,167.071h -2.13165" fill="none" stroke="black"/>
<path d="M26.0647,163.164h -2.13165" fill="none" stroke="black"/>
<path d="M26.0647,159.257h -2.13165" fill="none" stroke="black"/>
<path d="M26.0647,155.35h -2.13165" fill="none" stroke="black"/>
<path d="M28.1964,151.442h -4.26331" fill="none" stroke="black"/>
<path d="M26.0647,147.535h -2.13165" fill="none" stroke="black"/>
<path d="M26.0647,143.628h -2.13165" fill="none" stroke="black"/>
<path d="M26.0647,139.72h -2.13165" fill="none" stroke="black"/>
<path d="M26.0647,135.813h -2.13165" fill="none" stroke="black"/>
<path d="M28.1964,131.906h -4.26331" fill="none" stroke="black"/>
<path d="M26.0647,127.999h -2.13165" fill="none" stroke="black"/>
<path d="M26.0647,124.091h -2.13165" fill="none" stroke="black"/>
<path d="M26.0647,120.184h -2.13165" fill="none" stroke="black"/>
<path d="M26.0647,116.277h -2.13165" fill="none" stroke="black"/>
<path d="M28.1964,112.369h -4.26331" fill="none" stroke="black"/>
<path d="M26.0647,108.462h -2.13165" fill="none" stroke="black"/>
<path d="M26.0647,104.555h -2.13165" fill="none" stroke="black"/>
<path d="M26.0647,100.648h -2.13165" fill="none" stroke="black"/>
<path d="M26.0647,96.7403h -2.13165" fill="none" stroke="black"/>
<path d="M28.1964,92.833h -4.26331" fill="none" stroke="black"/>
<path d="M26.0647,88.9257h -2.13165" fill="none" stroke="black"/>
<path d="M26.0647,85.0184h -2.13165" fill="none" stroke="black"/>
<path d="M26.0647,81.1111h -2.13165" fill="none" stroke="black"/>
<path d="M26.0647,77.2038h -2.13165" fill="none" stroke="black"/>
<path d="M28.1964,73.2965h -4.26331" fill="none" stroke="black"/>
<path d="M26.0647,69.3893h -2.13165" fill="none" stroke="black"/>
<path d="M26.0647,65.482h -2.13165" fill="none" stroke="black"/>
<path d="M26.0647,61.5747h -2.13165" fill="none" stroke="black"/>
<path d="M26.0647,57.6674h -2.13165" fill="none" stroke="black"/>
<path d="M28.1964,53.7601h -4.26331" fill="none" stroke="black"/>
<path d="M26.0647,49.8528h -2.13165" fill="none" stroke="black"/>
<path d="M26.0647,45.9455h -2.13165" fill="none" stroke="black"/>
<path d="M26.0647,42.0382h -2.13165" fill="none" stroke="black"/>
<path d="M26.0647,38.131h -2.13165" fill="none" stroke="black"/>
<path d="M28.1964,34.2237h -4.26331" fill="none" stroke="black"/>
<path d="M28.1964,34.2237h -4.26331" fill="none" stroke="black"/>
<path d="M26.0647,30.3164h -2.13165" fill="none" stroke="black"/>
<path d="M26.0647,26.4091h -2.13165" fill="none" stroke="black"/>
<text xml:space="preserve" x="19.4397" y="212.125" fill="black" font-size="6.20397" font-family="Helvetica">
0
</text>
<text xml:space="preserve" x="20.0711" y="192.554" fill="black" font-size="6.20397" font-family="Helvetica">
1
</text>
<text xml:space="preserve" x="19.4397" y="172.983" fill="black" font-size="6.20397" font-family="Helvetica">
2
</text>
<text xml:space="preserve" x="19.4397" y="153.412" fill="black" font-size="6.20397" font-family="Helvetica">
3
</text>
<text xml:space="preserve" x="19.4397" y="133.841" fill="black" font-size="6.20397" font-family="Helvetica">
4
</text>
<text xml:space="preserve" x="19.4397" y="114.27" fill="black" font-size="6.20397" font-family="Helvetica">
5
</text>
<text xml:space="preserve" x="19.4397" y="95.3299" fill="black" font-size="6.20397" font-family="Helvetica">
6
</text>
<text xml:space="preserve" x="19.4397" y="75.7589" fill="black" font-size="6.20397" font-family="Helvetica">
7
</text>
<text xml:space="preserve" x="19.4397" y="56.1879" fill="black" font-size="6.20397" font-family="Helvetica">
8
</text>
<text xml:space="preserve" x="19.4397" y="36.6168" fill="black" font-size="6.20397" font-family="Helvetica">
9
</text>
<rect x="144.727" y="17.3552" width="35.5276" height="36.9239" fill="white"/>
<path d="M144.727,54.279h 35.5276" fill="none" stroke="black"/>
<path d="M180.254,54.279v -36.9239" fill="none" stroke="black"/>
<path d="M180.254,17.3552h -35.5276" fill="none" stroke="black"/>
<path d="M144.727,17.3552v 36.9239" fill="none" stroke="black"/>
<text xml:space="preserve" x="158.962" y="24.6216" fill="black" font-size="6.49731" font-family="Helvetica">
h1
</text>
<path d="M144.727,26.5861h 35.5276" fill="none" stroke="black"/>
<text xml:space="preserve" x="146.336" y="32.8289" fill="black" font-size="4.455" font-family="Helvetica">
Entries 
</text>
<text xml:space="preserve" x="169.064" y="32.8289" fill="black" font-size="4.455" font-family="Helvetica">
 1001
</text>
<text xml:space="preserve" x="146.336" y="42.2987" fill="black" font-size="4.455" font-family="Helvetica">
Mean  
</text>
<text xml:space="preserve" x="167.17" y="42.2987" fill="black" font-size="4.455" font-family="Helvetica">
    519
</text>
<text xml:space="preserve" x="146.336" y="51.1373" fill="black" font-size="4.455" font-family="Helvetica">
Std Dev   
</text>
<text xml:space="preserve" x="165.907" y="51.1373" fill="black" font-size="4.455" font-family="Helvetica">
  110.3
</text>
<text xml:space="preserve" x="64.2637" y="12.6265" fill="black" font-size="8.11887" font-family="Helvetica">
Number of events
</text>
<rect x="195.146" y="2.35484" width="177.638" height="230.774" fill="white"/>
<rect x="212.909" y="25.4323" width="142.11" height="184.619" fill="white"/>
<rect x="212.909" y="25.4323" width="142.11" height="184.619" fill="none" stroke="black"/>
<rect x="212.909" y="25.4323" width="142.11" height="184.619" fill="white"/>
<rect x="212.909" y="25.4323" width="142.11" height="184.619" fill="none" stroke="black"/>
<path d="M216.462,45.2397v -5.50804" fill="none" stroke="#000099"/>
<path d="M216.462,39.7317v -5.50804" fill="none" stroke="#000099"/>
<path d="M215.752,39.7317h 0.710551" fill="none" stroke="#000099"/>
<path d="M216.462,39.7317h 0.710551" fill="none" stroke="#000099"/>
<g stroke="black" stroke-width="1" fill="none">
<line x1="215.462" y1="39.7317" x2="216.462" y2="39.7317"/>
</g>
<rect x="333.703" y="17.3552" width="35.5276" height="36.9239" fill="white"/>
<path d="M333.703,54.279h 35.5276" fill="none" stroke="black"/>
<path d="M369.231,54.279v -36.9239" fill="none" stroke="black"/>
<path d="M369.231,17.3552h -35.5276" fill="none" stroke="black"/>
<path d="M333.703,17.3552v 36.9239" fill="none" stroke="black"/>
<text xml:space="preserve" x="347.097" y="24.6216" fill="black" font-size="6.49731" font-family="Helvetica">
h2
</text>
<path d="M333.703,26.5861h 35.5276" fill="none" stroke="black"/>
<text xml:space="preserve" x="335.102" y="32.8289" fill="black" font-size="3.8535" font-family="Helvetica">
Entries 
</text>
<text xml:space="preserve" x="359.723" y="32.1975" fill="black" font-size="3.8535" font-family="Helvetica">
 1001
</text>
<text xml:space="preserve" x="335.102" y="42.2987" fill="black" font-size="3.8535" font-family="Helvetica">
Mean  
</text>
<text xml:space="preserve" x="357.198" y="41.6674" fill="black" font-size="3.8535" font-family="Helvetica">
  0.135
</text>
<text xml:space="preserve" x="335.102" y="51.1373" fill="black" font-size="3.8535" font-family="Helvetica">
Std Dev   
</text>
<text xml:space="preserve" x="363.511" y="50.5059" fill="black" font-size="3.8535" font-family="Helvetica">
06
</text>
<text xml:space="preserve" x="361.617" y="50.5059" fill="black" font-size="3.8535" font-family="Times">
&#8722;
</text>
<text xml:space="preserve" x="350.885" y="50.5059" fill="black" font-size="3.8535" font-family="Helvetica">
 8.332e
</text>
<path d="M212.909,210.052h 142.11" fill="none" stroke="black"/>
<path d="M212.909,204.513v 5.53858" fill="none" stroke="black"/>
<path d="M215.752,207.282v 2.76929" fill="none" stroke="black"/>
<path d="M218.594,207.282v 2.76929" fill="none" stroke="black"/>
<path d="M221.436,207.282v 2.76929" fill="none" stroke="black"/>
<path d="M224.278,207.282v 2.76929" fill="none" stroke="black"/>
<path d="M227.12,204.513v 5.53858" fill="none" stroke="black"/>
<path d="M229.963,207.282v 2.76929" fill="none" stroke="black"/>
<path d="M232.805,207.282v 2.76929" fill="none" stroke="black"/>
<path d="M235.647,207.282v 2.76929" fill="none" stroke="black"/>
<path d="M238.489,207.282v 2.76929" fill="none" stroke="black"/>
<path d="M241.331,204.513v 5.53858" fill="none" stroke="black"/>
<path d="M244.174,207.282v 2.76929" fill="none" stroke="black"/>
<path d="M247.016,207.282v 2.76929" fill="none" stroke="black"/>
<path d="M249.858,207.282v 2.76929" fill="none" stroke="black"/>
<path d="M252.7,207.282v 2.76929" fill="none" stroke="black"/>
<path d="M255.543,204.513v 5.53858" fill="none" stroke="black"/>
<path d="M258.385,207.282v 2.76929" fill="none" stroke="black"/>
<path d="M261.227,207.282v 2.76929" fill="none" stroke="black"/>
<path d="M264.069,207.282v 2.76929" fill="none" stroke="black"/>
<path d="M266.911,207.282v 2.76929" fill="none" stroke="black"/>
<path d="M269.754,204.513v 5.53858" fill="none" stroke="black"/>
<path d="M272.596,207.282v 2.76929" fill="none" stroke="black"/>
<path d="M275.438,207.282v 2.76929" fill="none" stroke="black"/>
<path d="M278.28,207.282v 2.76929" fill="none" stroke="black"/>
<path d="M281.122,207.282v 2.76929" fill="none" stroke="black"/>
<path d="M283.965,204.513v 5.53858" fill="none" stroke="black"/>
<path d="M286.807,207.282v 2.76929" fill="none" stroke="black"/>
<path d="M289.649,207.282v 2.76929" fill="none" stroke="black"/>
<path d="M292.491,207.282v 2.76929" fill="none" stroke="black"/>
<path d="M295.333,207.282v 2.76929" fill="none" stroke="black"/>
<path d="M298.176,204.513v 5.53858" fill="none" stroke="black"/>
<path d="M301.018,207.282v 2.76929" fill="none" stroke="black"/>
<path d="M303.86,207.282v 2.76929" fill="none" stroke="black"/>
<path d="M306.702,207.282v 2.76929" fill="none" stroke="black"/>
<path d="M309.544,207.282v 2.76929" fill="none" stroke="black"/>
<path d="M312.387,204.513v 5.53858" fill="none" stroke="black"/>
<path d="M315.229,207.282v 2.76929" fill="none" stroke="black"/>
<path d="M318.071,207.282v 2.76929" fill="none" stroke="black"/>
<path d="M320.913,207.282v 2.76929" fill="none" stroke="black"/>
<path d="M323.755,207.282v 2.76929" fill="none" stroke="black"/>
<path d="M326.598,204.513v 5.53858" fill="none" stroke="black"/>
<path d="M329.44,207.282v 2.76929" fill="none" stroke="black"/>
<path d="M332.282,207.282v 2.76929" fill="none" stroke="black"/>
<path d="M335.124,207.282v 2.76929" fill="none" stroke="black"/>
<path d="M337.966,207.282v 2.76929" fill="none" stroke="black"/>
<path d="M340.809,204.513v 5.53858" fill="none" stroke="black"/>
<path d="M343.651,207.282v 2.76929" fill="none" stroke="black"/>
<path d="M346.493,207.282v 2.76929" fill="none" stroke="black"/>
<path d="M349.335,207.282v 2.76929" fill="none" stroke="black"/>
<path d="M352.177,207.282v 2.76929" fill="none" stroke="black"/>
<path d="M355.02,204.513v 5.53858" fill="none" stroke="black"/>
<text xml:space="preserve" x="210.731" y="217.176" fill="black" font-size="6.20397" font-family="Helvetica">
0
</text>
<text xml:space="preserve" x="222.095" y="217.176" fill="black" font-size="6.20397" font-family="Helvetica">
0.5
</text>
<text xml:space="preserve" x="239.772" y="217.176" fill="black" font-size="6.20397" font-family="Helvetica">
1
</text>
<text xml:space="preserve" x="250.504" y="217.176" fill="black" font-size="6.20397" font-family="Helvetica">
1.5
</text>
<text xml:space="preserve" x="267.55" y="217.176" fill="black" font-size="6.20397" font-family="Helvetica">
2
</text>
<text xml:space="preserve" x="279.545" y="217.176" fill="black" font-size="6.20397" font-family="Helvetica">
2.5
</text>
<text xml:space="preserve" x="295.96" y="217.176" fill="black" font-size="6.20397" font-family="Helvetica">
3
</text>
<text xml:space="preserve" x="307.955" y="217.176" fill="black" font-size="6.20397" font-family="Helvetica">
3.5
</text>
<text xml:space="preserve" x="324.369" y="217.176" fill="black" font-size="6.20397" font-family="Helvetica">
4
</text>
<text xml:space="preserve" x="336.364" y="217.176" fill="black" font-size="6.20397" font-family="Helvetica">
4.5
</text>
<text xml:space="preserve" x="352.779" y="217.176" fill="black" font-size="6.20397" font-family="Helvetica">
5
</text>
<path d="M212.909,210.052v -184.619" fill="none" stroke="black"/>
<path d="M217.173,210.052h -4.26331" fill="none" stroke="black"/>
<path d="M215.041,203.507h -2.13165" fill="none" stroke="black"/>
<path d="M215.041,196.963h -2.13165" fill="none" stroke="black"/>
<path d="M215.041,190.418h -2.13165" fill="none" stroke="black"/>
<path d="M215.041,183.874h -2.13165" fill="none" stroke="black"/>
<path d="M217.173,177.33h -4.26331" fill="none" stroke="black"/>
<path d="M215.041,170.785h -2.13165" fill="none" stroke="black"/>
<path d="M215.041,164.241h -2.13165" fill="none" stroke="black"/>
<path d="M215.041,157.696h -2.13165" fill="none" stroke="black"/>
<path d="M215.041,151.152h -2.13165" fill="none" stroke="black"/>
<path d="M217.173,144.608h -4.26331" fill="none" stroke="black"/>
<path d="M215.041,138.063h -2.13165" fill="none" stroke="black"/>
<path d="M215.041,131.519h -2.13165" fill="none" stroke="black"/>
<path d="M215.041,124.974h -2.13165" fill="none" stroke="black"/>
<path d="M215.041,118.43h -2.13165" fill="none" stroke="black"/>
<path d="M217.173,111.885h -4.26331" fill="none" stroke="black"/>
<path d="M215.041,105.341h -2.13165" fill="none" stroke="black"/>
<path d="M215.041,98.7967h -2.13165" fill="none" stroke="black"/>
<path d="M215.041,92.2522h -2.13165" fill="none" stroke="black"/>
<path d="M215.041,85.7078h -2.13165" fill="none" stroke="black"/>
<path d="M217.173,79.1634h -4.26331" fill="none" stroke="black"/>
<path d="M215.041,72.619h -2.13165" fill="none" stroke="black"/>
<path d="M215.041,66.0746h -2.13165" fill="none" stroke="black"/>
<path d="M215.041,59.5302h -2.13165" fill="none" stroke="black"/>
<path d="M215.041,52.9858h -2.13165" fill="none" stroke="black"/>
<path d="M217.173,46.4414h -4.26331" fill="none" stroke="black"/>
<path d="M217.173,46.4414h -4.26331" fill="none" stroke="black"/>
<path d="M215.041,39.897h -2.13165" fill="none" stroke="black"/>
<path d="M215.041,33.3525h -2.13165" fill="none" stroke="black"/>
<path d="M215.041,26.8081h -2.13165" fill="none" stroke="black"/>
<text xml:space="preserve" x="208.837" y="212.125" fill="black" font-size="6.20397" font-family="Helvetica">
0
</text>
<text xml:space="preserve" x="202.524" y="179.296" fill="black" font-size="6.20397" font-family="Helvetica">
100
</text>
<text xml:space="preserve" x="202.524" y="147.099" fill="black" font-size="6.20397" font-family="Helvetica">
200
</text>
<text xml:space="preserve" x="202.524" y="114.27" fill="black" font-size="6.20397" font-family="Helvetica">
300
</text>
<text xml:space="preserve" x="202.524" y="81.4408" fill="black" font-size="6.20397" font-family="Helvetica">
400
</text>
<text xml:space="preserve" x="202.524" y="48.612" fill="black" font-size="6.20397" font-family="Helvetica">
500
</text>
<text xml:space="preserve" x="222.095" y="20.8337" fill="black" font-size="4.30264" font-family="Helvetica">
3
</text>
<text xml:space="preserve" x="215.782" y="24.6216" fill="black" font-size="6.20397" font-family="Helvetica">
10
</text>
<text xml:space="preserve" x="212.625" y="24.6216" fill="black" font-size="6.20397" font-family="Times">
&#0215;
</text>
<rect x="333.703" y="17.3552" width="35.5276" height="36.9239" fill="white"/>
<path d="M333.703,54.279h 35.5276" fill="none" stroke="black"/>
<path d="M369.231,54.279v -36.9239" fill="none" stroke="black"/>
<path d="M369.231,17.3552h -35.5276" fill="none" stroke="black"/>
<path d="M333.703,17.3552v 36.9239" fill="none" stroke="black"/>
<text xml:space="preserve" x="347.097" y="24.6216" fill="black" font-size="6.49731" font-family="Helvetica">
h2
</text>
<path d="M333.703,26.5861h 35.5276" fill="none" stroke="black"/>
<text xml:space="preserve" x="335.102" y="32.8289" fill="black" font-size="3.8535" font-family="Helvetica">
Entries 
</text>
<text xml:space="preserve" x="359.723" y="32.1975" fill="black" font-size="3.8535" font-family="Helvetica">
 1001
</text>
<text xml:space="preserve" x="335.102" y="42.2987" fill="black" font-size="3.8535" font-family="Helvetica">
Mean  
</text>
<text xml:space="preserve" x="357.198" y="41.6674" fill="black" font-size="3.8535" font-family="Helvetica">
  0.135
</text>
<text xml:space="preserve" x="335.102" y="51.1373" fill="black" font-size="3.8535" font-family="Helvetica">
Std Dev   
</text>
<text xml:space="preserve" x="363.511" y="50.5059" fill="black" font-size="3.8535" font-family="Helvetica">
06
</text>
<text xml:space="preserve" x="361.617" y="50.5059" fill="black" font-size="3.8535" font-family="Times">
&#8722;
</text>
<text xml:space="preserve" x="350.885" y="50.5059" fill="black" font-size="3.8535" font-family="Helvetica">
 8.332e
</text>
<text xml:space="preserve" x="255.555" y="11.9952" fill="black" font-size="8.11887" font-family="Helvetica">
Energy of events
</text>
<rect x="384.122" y="2.35484" width="177.638" height="230.774" fill="white"/>
<rect x="401.886" y="25.4323" width="142.11" height="184.619" fill="white"/>
<rect x="401.886" y="25.4323" width="142.11" height="184.619" fill="none" stroke="black"/>
<rect x="401.886" y="25.4323" width="142.11" height="184.619" fill="white"/>
<rect x="401.886" y="25.4323" width="142.11" height="184.619" fill="none" stroke="black"/>
<path d="M415.386,210.052v -0.199346" fill="none" stroke="#000099"/>
<path d="M415.386,209.852v -0.199346" fill="none" stroke="#000099"/>
<path d="M414.676,209.852h 0.710551" fill="none" stroke="#000099"/>
<path d="M415.386,209.852h 0.710551" fill="none" stroke="#000099"/>
<g stroke="black" stroke-width="1" fill="none">
<line x1="414.386" y1="209.852" x2="415.386" y2="209.852"/>
</g>
<path d="M416.807,164.048v -3.42551" fill="none" stroke="#000099"/>
<path d="M416.807,160.623v -3.42551" fill="none" stroke="#000099"/>
<path d="M416.097,160.623h 0.710551" fill="none" stroke="#000099"/>
<path d="M416.807,160.623h 0.710551" fill="none" stroke="#000099"/>
<g stroke="black" stroke-width="1" fill="none">
<line x1="415.807" y1="160.623" x2="416.807" y2="160.623"/>
</g>
<path d="M418.229,47.2606v -6.51848" fill="none" stroke="#000099"/>
<path d="M418.229,40.7421v -6.51848" fill="none" stroke="#000099"/>
<path d="M417.518,40.7421h 0.710551" fill="none" stroke="#000099"/>
<path d="M418.229,40.7421h 0.710551" fill="none" stroke="#000099"/>
<g stroke="black" stroke-width="1" fill="none">
<line x1="417.229" y1="40.7421" x2="418.229" y2="40.7421"/>
</g>
<path d="M419.65,193.718v -2.16718" fill="none" stroke="#000099"/>
<path d="M419.65,191.551v -2.16718" fill="none" stroke="#000099"/>
<path d="M418.939,191.551h 0.710551" fill="none" stroke="#000099"/>
<path d="M419.65,191.551h 0.710551" fill="none" stroke="#000099"/>
<g stroke="black" stroke-width="1" fill="none">
<line x1="418.65" y1="191.551" x2="419.65" y2="191.551"/>
</g>
<rect x="522.68" y="17.3552" width="35.5276" height="36.9239" fill="white"/>
<path d="M522.68,54.279h 35.5276" fill="none" stroke="black"/>
<path d="M558.207,54.279v -36.9239" fill="none" stroke="black"/>
<path d="M558.207,17.3552h -35.5276" fill="none" stroke="black"/>
<path d="M522.68,17.3552v 36.9239" fill="none" stroke="black"/>
<text xml:space="preserve" x="536.494" y="23.9903" fill="black" font-size="6.49731" font-family="Helvetica">
h3
</text>
<path d="M522.68,26.5861h 35.5276" fill="none" stroke="black"/>
<text xml:space="preserve" x="523.868" y="32.8289" fill="black" font-size="4.19024" font-family="Helvetica">
Entries 
</text>
<text xml:space="preserve" x="547.227" y="32.8289" fill="black" font-size="4.19024" font-family="Helvetica">
 1001
</text>
<text xml:space="preserve" x="523.868" y="42.2987" fill="black" font-size="4.19024" font-family="Helvetica">
Mean  
</text>
<text xml:space="preserve" x="544.07" y="42.2987" fill="black" font-size="4.19024" font-family="Helvetica">
 0.3411
</text>
<text xml:space="preserve" x="523.868" y="51.1373" fill="black" font-size="4.19024" font-family="Helvetica">
Std Dev   
</text>
<text xml:space="preserve" x="540.914" y="51.1373" fill="black" font-size="4.19024" font-family="Helvetica">
 0.01338
</text>
<path d="M401.886,210.052h 142.11" fill="none" stroke="black"/>
<path d="M401.886,204.513v 5.53858" fill="none" stroke="black"/>
<path d="M406.623,207.282v 2.76929" fill="none" stroke="black"/>
<path d="M411.36,207.282v 2.76929" fill="none" stroke="black"/>
<path d="M416.097,207.282v 2.76929" fill="none" stroke="black"/>
<path d="M420.834,207.282v 2.76929" fill="none" stroke="black"/>
<path d="M425.571,204.513v 5.53858" fill="none" stroke="black"/>
<path d="M430.308,207.282v 2.76929" fill="none" stroke="black"/>
<path d="M435.045,207.282v 2.76929" fill="none" stroke="black"/>
<path d="M439.782,207.282v 2.76929" fill="none" stroke="black"/>
<path d="M444.519,207.282v 2.76929" fill="none" stroke="black"/>
<path d="M449.256,204.513v 5.53858" fill="none" stroke="black"/>
<path d="M453.993,207.282v 2.76929" fill="none" stroke="black"/>
<path d="M458.73,207.282v 2.76929" fill="none" stroke="black"/>
<path d="M463.467,207.282v 2.76929" fill="none" stroke="black"/>
<path d="M468.204,207.282v 2.76929" fill="none" stroke="black"/>
<path d="M472.941,204.513v 5.53858" fill="none" stroke="black"/>
<path d="M477.678,207.282v 2.76929" fill="none" stroke="black"/>
<path d="M482.415,207.282v 2.76929" fill="none" stroke="black"/>
<path d="M487.152,207.282v 2.76929" fill="none" stroke="black"/>
<path d="M491.889,207.282v 2.76929" fill="none" stroke="black"/>
<path d="M496.626,204.513v 5.53858" fill="none" stroke="black"/>
<path d="M501.363,207.282v 2.76929" fill="none" stroke="black"/>
<path d="M506.1,207.282v 2.76929" fill="none" stroke="black"/>
<path d="M510.837,207.282v 2.76929" fill="none" stroke="black"/>
<path d="M515.574,207.282v 2.76929" fill="none" stroke="black"/>
<path d="M520.311,204.513v 5.53858" fill="none" stroke="black"/>
<path d="M525.048,207.282v 2.76929" fill="none" stroke="black"/>
<path d="M529.785,207.282v 2.76929" fill="none" stroke="black"/>
<path d="M534.522,207.282v 2.76929" fill="none" stroke="black"/>
<path d="M539.259,207.282v 2.76929" fill="none" stroke="black"/>
<path d="M543.996,204.513v 5.53858" fill="none" stroke="black"/>
<path d="M543.996,204.513v 5.53858" fill="none" stroke="black"/>
<text xml:space="preserve" x="399.497" y="217.176" fill="black" font-size="6.20397" font-family="Helvetica">
0
</text>
<text xml:space="preserve" x="420.962" y="217.176" fill="black" font-size="6.20397" font-family="Helvetica">
0.5
</text>
<text xml:space="preserve" x="447.478" y="217.176" fill="black" font-size="6.20397" font-family="Helvetica">
1
</text>
<text xml:space="preserve" x="468.311" y="217.176" fill="black" font-size="6.20397" font-family="Helvetica">
1.5
</text>
<text xml:space="preserve" x="494.196" y="217.176" fill="black" font-size="6.20397" font-family="Helvetica">
2
</text>
<text xml:space="preserve" x="515.661" y="217.176" fill="black" font-size="6.20397" font-family="Helvetica">
2.5
</text>
<text xml:space="preserve" x="541.545" y="217.176" fill="black" font-size="6.20397" font-family="Helvetica">
3
</text>
<path d="M401.886,210.052v -184.619" fill="none" stroke="black"/>
<path d="M406.149,210.052h -4.26331" fill="none" stroke="black"/>
<path d="M404.017,205.49h -2.13165" fill="none" stroke="black"/>
<path d="M404.017,200.928h -2.13165" fill="none" stroke="black"/>
<path d="M404.017,196.367h -2.13165" fill="none" stroke="black"/>
<path d="M404.017,191.805h -2.13165" fill="none" stroke="black"/>
<path d="M406.149,187.243h -4.26331" fill="none" stroke="black"/>
<path d="M404.017,182.681h -2.13165" fill="none" stroke="black"/>
<path d="M404.017,178.12h -2.13165" fill="none" stroke="black"/>
<path d="M404.017,173.558h -2.13165" fill="none" stroke="black"/>
<path d="M404.017,168.996h -2.13165" fill="none" stroke="black"/>
<path d="M406.149,164.435h -4.26331" fill="none" stroke="black"/>
<path d="M404.017,159.873h -2.13165" fill="none" stroke="black"/>
<path d="M404.017,155.311h -2.13165" fill="none" stroke="black"/>
<path d="M404.017,150.75h -2.13165" fill="none" stroke="black"/>
<path d="M404.017,146.188h -2.13165" fill="none" stroke="black"/>
<path d="M406.149,141.626h -4.26331" fill="none" stroke="black"/>
<path d="M404.017,137.065h -2.13165" fill="none" stroke="black"/>
<path d="M404.017,132.503h -2.13165" fill="none" stroke="black"/>
<path d="M404.017,127.941h -2.13165" fill="none" stroke="black"/>
<path d="M404.017,123.379h -2.13165" fill="none" stroke="black"/>
<path d="M406.149,118.818h -4.26331" fill="none" stroke="black"/>
<path d="M404.017,114.256h -2.13165" fill="none" stroke="black"/>
<path d="M404.017,109.694h -2.13165" fill="none" stroke="black"/>
<path d="M404.017,105.133h -2.13165" fill="none" stroke="black"/>
<path d="M404.017,100.571h -2.13165" fill="none" stroke="black"/>
<path d="M406.149,96.0093h -4.26331" fill="none" stroke="black"/>
<path d="M404.017,91.4476h -2.13165" fill="none" stroke="black"/>
<path d="M404.017,86.8859h -2.13165" fill="none" stroke="black"/>
<path d="M404.017,82.3242h -2.13165" fill="none" stroke="black"/>
<path d="M404.017,77.7626h -2.13165" fill="none" stroke="black"/>
<path d="M406.149,73.2009h -4.26331" fill="none" stroke="black"/>
<path d="M404.017,68.6392h -2.13165" fill="none" stroke="black"/>
<path d="M404.017,64.0775h -2.13165" fill="none" stroke="black"/>
<path d="M404.017,59.5158h -2.13165" fill="none" stroke="black"/>
<path d="M404.017,54.9541h -2.13165" fill="none" stroke="black"/>
<path d="M406.149,50.3924h -4.26331" fill="none" stroke="black"/>
<path d="M404.017,45.8307h -2.13165" fill="none" stroke="black"/>
<path d="M404.017,41.269h -2.13165" fill="none" stroke="black"/>
<path d="M404.017,36.7073h -2.13165" fill="none" stroke="black"/>
<path d="M404.017,32.1456h -2.13165" fill="none" stroke="black"/>
<path d="M406.149,27.5839h -4.26331" fill="none" stroke="black"/>
<path d="M406.149,27.5839h -4.26331" fill="none" stroke="black"/>
<text xml:space="preserve" x="397.603" y="212.125" fill="black" font-size="6.20397" font-family="Helvetica">
0
</text>
<text xml:space="preserve" x="394.446" y="189.397" fill="black" font-size="6.20397" font-family="Helvetica">
50
</text>
<text xml:space="preserve" x="391.29" y="166.67" fill="black" font-size="6.20397" font-family="Helvetica">
100
</text>
<text xml:space="preserve" x="391.29" y="143.942" fill="black" font-size="6.20397" font-family="Helvetica">
150
</text>
<text xml:space="preserve" x="391.29" y="121.214" fill="black" font-size="6.20397" font-family="Helvetica">
200
</text>
<text xml:space="preserve" x="391.29" y="98.4866" fill="black" font-size="6.20397" font-family="Helvetica">
250
</text>
<text xml:space="preserve" x="391.29" y="75.1276" fill="black" font-size="6.20397" font-family="Helvetica">
300
</text>
<text xml:space="preserve" x="391.29" y="52.3999" fill="black" font-size="6.20397" font-family="Helvetica">
350
</text>
<text xml:space="preserve" x="391.29" y="29.6722" fill="black" font-size="6.20397" font-family="Helvetica">
400
</text>
<text xml:space="preserve" x="410.861" y="20.8337" fill="black" font-size="4.30264" font-family="Helvetica">
3
</text>
<text xml:space="preserve" x="404.547" y="24.6216" fill="black" font-size="6.20397" font-family="Helvetica">
10
</text>
<text xml:space="preserve" x="401.391" y="24.6216" fill="black" font-size="6.20397" font-family="Times">
&#0215;
</text>
<rect x="522.68" y="17.3552" width="35.5276" height="36.9239" fill="white"/>
<path d="M522.68,54.279h 35.5276" fill="none" stroke="black"/>
<path d="M558.207,54.279v -36.9239" fill="none" stroke="black"/>
<path d="M558.207,17.3552h -35.5276" fill="none" stroke="black"/>
<path d="M522.68,17.3552v 36.9239" fill="none" stroke="black"/>
<text xml:space="preserve" x="536.494" y="23.9903" fill="black" font-size="6.49731" font-family="Helvetica">
h3
</text>
<path d="M522.68,26.5861h 35.5276" fill="none" stroke="black"/>
<text xml:space="preserve" x="523.868" y="32.8289" fill="black" font-size="4.19024" font-family="Helvetica">
Entries 
</text>
<text xml:space="preserve" x="547.227" y="32.8289" fill="black" font-size="4.19024" font-family="Helvetica">
 1001
</text>
<text xml:space="preserve" x="523.868" y="42.2987" fill="black" font-size="4.19024" font-family="Helvetica">
Mean  
</text>
<text xml:space="preserve" x="544.07" y="42.2987" fill="black" font-size="4.19024" font-family="Helvetica">
 0.3411
</text>
<text xml:space="preserve" x="523.868" y="51.1373" fill="black" font-size="4.19024" font-family="Helvetica">
Std Dev   
</text>
<text xml:space="preserve" x="540.914" y="51.1373" fill="black" font-size="4.19024" font-family="Helvetica">
 0.01338
</text>
<text xml:space="preserve" x="440.533" y="12.6265" fill="black" font-size="8.11887" font-family="Helvetica">
Momenta of events
</text></svg>
