<?xml version="1.0" standalone="no"?>
<svg width="567.429" height="235.984" viewBox="0 0 567.429 235.984" xmlns="http://www.w3.org/2000/svg">
<title>
/home/olaralex/Asztal/c++advanced/particleHIJINGadatok/proton.svg
</title>
<desc>
Creator: ROOT Version 6.08/04
CreationDate: Thu Feb 23 23:33:33 2017</desc>
<defs>
</defs>
<rect x="0.5" y="0" width="566.929" height="235.484" fill="white"/>
<rect x="6.16929" y="2.35484" width="177.638" height="230.774" fill="white"/>
<rect x="23.9331" y="25.4323" width="142.11" height="184.619" fill="white"/>
<rect x="23.9331" y="25.4323" width="142.11" height="184.619" fill="none" stroke="black"/>
<rect x="23.9331" y="25.4323" width="142.11" height="184.619" fill="white"/>
<rect x="23.9331" y="25.4323" width="142.11" height="184.619" fill="none" stroke="black"/>
<path d="M23.9331,206.311h 0.14211v 3.74102h 22.8797v -7.48204h 0.28422v 7.48204h 0.14211v -3.74102h 0.28422v 3.74102h 0.14211v -3.74102h 0.14211v -3.74102h 0.28422v -18.7051h 0.14211v -29.9282h 0.14211v 26.1871h 0.14211v -26.1871h 0.14211v -3.74102h
 0.14211v -3.74102h 0.14211v -7.48204h 0.14211v 3.74102h 0.14211v -18.7051h 0.28422v -18.7051h 0.14211v 29.9282h 0.14211v -26.1871h 0.14211v -74.8204h 0.14211v 22.4461h 0.14211v 56.1153h 0.14211v -74.8204h 0.14211v 56.1153h 0.14211v -37.4102h
 0.14211v -7.48204h 0.14211v 22.4461h 0.14211v -33.6692h 0.14211v 26.1871h 0.14211v -14.9641h 0.14211v 14.9641h 0.14211v 82.3025h 0.14211v -44.8923h 0.14211v 26.1871h 0.14211v -3.74102h 0.14211v -7.48204h 0.14211v 33.6692h 0.14211v -29.9282h 0.14211v
 33.6692h 0.14211v -11.2231h 0.14211v 33.6692h 0.14211v -3.74102h 0.426331v 3.74102h 0.14211v 14.9641h 0.28422v -7.48204h 0.14211v 7.48204h 0.14211v 7.48204h 0.14211v 11.2231h 0.14211v -22.4461h 0.14211v 18.7051h 0.14211v 3.74102h 0.426331v -3.74102h
 0.14211v 3.74102h 0.14211v -3.74102h 0.14211v -3.74102h 0.14211v 7.48204h 0.426331v -3.74102h 0.14211v 3.74102h 109.567" fill="none" stroke="#000099"/>
<rect x="144.727" y="17.3552" width="35.5276" height="36.9239" fill="white"/>
<path d="M144.727,54.279h 35.5276" fill="none" stroke="black"/>
<path d="M180.254,54.279v -36.9239" fill="none" stroke="black"/>
<path d="M180.254,17.3552h -35.5276" fill="none" stroke="black"/>
<path d="M144.727,17.3552v 36.9239" fill="none" stroke="black"/>
<text xml:space="preserve" x="158.962" y="24.6216" fill="black" font-size="6.49731" font-family="Helvetica">
h1
</text>
<path d="M144.727,26.5861h 35.5276" fill="none" stroke="black"/>
<text xml:space="preserve" x="146.336" y="32.8289" fill="black" font-size="4.455" font-family="Helvetica">
Entries 
</text>
<text xml:space="preserve" x="169.064" y="32.8289" fill="black" font-size="4.455" font-family="Helvetica">
 1001
</text>
<text xml:space="preserve" x="146.336" y="42.2987" fill="black" font-size="4.455" font-family="Helvetica">
Mean  
</text>
<text xml:space="preserve" x="166.538" y="42.2987" fill="black" font-size="4.455" font-family="Helvetica">
  190.1
</text>
<text xml:space="preserve" x="146.336" y="51.1373" fill="black" font-size="4.455" font-family="Helvetica">
Std Dev   
</text>
<text xml:space="preserve" x="165.907" y="51.1373" fill="black" font-size="4.455" font-family="Helvetica">
  11.84
</text>
<path d="M23.9331,210.052h 142.11" fill="none" stroke="black"/>
<path d="M23.9331,204.513v 5.53858" fill="none" stroke="black"/>
<path d="M26.7753,207.282v 2.76929" fill="none" stroke="black"/>
<path d="M29.6175,207.282v 2.76929" fill="none" stroke="black"/>
<path d="M32.4597,207.282v 2.76929" fill="none" stroke="black"/>
<path d="M35.3019,207.282v 2.76929" fill="none" stroke="black"/>
<path d="M38.1441,204.513v 5.53858" fill="none" stroke="black"/>
<path d="M40.9863,207.282v 2.76929" fill="none" stroke="black"/>
<path d="M43.8285,207.282v 2.76929" fill="none" stroke="black"/>
<path d="M46.6707,207.282v 2.76929" fill="none" stroke="black"/>
<path d="M49.5129,207.282v 2.76929" fill="none" stroke="black"/>
<path d="M52.3551,204.513v 5.53858" fill="none" stroke="black"/>
<path d="M55.1973,207.282v 2.76929" fill="none" stroke="black"/>
<path d="M58.0395,207.282v 2.76929" fill="none" stroke="black"/>
<path d="M60.8817,207.282v 2.76929" fill="none" stroke="black"/>
<path d="M63.7239,207.282v 2.76929" fill="none" stroke="black"/>
<path d="M66.5661,204.513v 5.53858" fill="none" stroke="black"/>
<path d="M69.4083,207.282v 2.76929" fill="none" stroke="black"/>
<path d="M72.2505,207.282v 2.76929" fill="none" stroke="black"/>
<path d="M75.0928,207.282v 2.76929" fill="none" stroke="black"/>
<path d="M77.935,207.282v 2.76929" fill="none" stroke="black"/>
<path d="M80.7772,204.513v 5.53858" fill="none" stroke="black"/>
<path d="M83.6194,207.282v 2.76929" fill="none" stroke="black"/>
<path d="M86.4616,207.282v 2.76929" fill="none" stroke="black"/>
<path d="M89.3038,207.282v 2.76929" fill="none" stroke="black"/>
<path d="M92.146,207.282v 2.76929" fill="none" stroke="black"/>
<path d="M94.9882,204.513v 5.53858" fill="none" stroke="black"/>
<path d="M97.8304,207.282v 2.76929" fill="none" stroke="black"/>
<path d="M100.673,207.282v 2.76929" fill="none" stroke="black"/>
<path d="M103.515,207.282v 2.76929" fill="none" stroke="black"/>
<path d="M106.357,207.282v 2.76929" fill="none" stroke="black"/>
<path d="M109.199,204.513v 5.53858" fill="none" stroke="black"/>
<path d="M112.041,207.282v 2.76929" fill="none" stroke="black"/>
<path d="M114.884,207.282v 2.76929" fill="none" stroke="black"/>
<path d="M117.726,207.282v 2.76929" fill="none" stroke="black"/>
<path d="M120.568,207.282v 2.76929" fill="none" stroke="black"/>
<path d="M123.41,204.513v 5.53858" fill="none" stroke="black"/>
<path d="M126.252,207.282v 2.76929" fill="none" stroke="black"/>
<path d="M129.095,207.282v 2.76929" fill="none" stroke="black"/>
<path d="M131.937,207.282v 2.76929" fill="none" stroke="black"/>
<path d="M134.779,207.282v 2.76929" fill="none" stroke="black"/>
<path d="M137.621,204.513v 5.53858" fill="none" stroke="black"/>
<path d="M140.463,207.282v 2.76929" fill="none" stroke="black"/>
<path d="M143.306,207.282v 2.76929" fill="none" stroke="black"/>
<path d="M146.148,207.282v 2.76929" fill="none" stroke="black"/>
<path d="M148.99,207.282v 2.76929" fill="none" stroke="black"/>
<path d="M151.832,204.513v 5.53858" fill="none" stroke="black"/>
<path d="M154.674,207.282v 2.76929" fill="none" stroke="black"/>
<path d="M157.517,207.282v 2.76929" fill="none" stroke="black"/>
<path d="M160.359,207.282v 2.76929" fill="none" stroke="black"/>
<path d="M163.201,207.282v 2.76929" fill="none" stroke="black"/>
<path d="M166.043,204.513v 5.53858" fill="none" stroke="black"/>
<text xml:space="preserve" x="21.965" y="217.176" fill="black" font-size="6.20397" font-family="Helvetica">
0
</text>
<text xml:space="preserve" x="32.6975" y="217.176" fill="black" font-size="6.20397" font-family="Helvetica">
100
</text>
<text xml:space="preserve" x="47.218" y="217.176" fill="black" font-size="6.20397" font-family="Helvetica">
200
</text>
<text xml:space="preserve" x="61.1071" y="217.176" fill="black" font-size="6.20397" font-family="Helvetica">
300
</text>
<text xml:space="preserve" x="75.6276" y="217.176" fill="black" font-size="6.20397" font-family="Helvetica">
400
</text>
<text xml:space="preserve" x="89.5167" y="217.176" fill="black" font-size="6.20397" font-family="Helvetica">
500
</text>
<text xml:space="preserve" x="104.037" y="217.176" fill="black" font-size="6.20397" font-family="Helvetica">
600
</text>
<text xml:space="preserve" x="117.926" y="217.176" fill="black" font-size="6.20397" font-family="Helvetica">
700
</text>
<text xml:space="preserve" x="132.447" y="217.176" fill="black" font-size="6.20397" font-family="Helvetica">
800
</text>
<text xml:space="preserve" x="146.336" y="217.176" fill="black" font-size="6.20397" font-family="Helvetica">
900
</text>
<text xml:space="preserve" x="159.594" y="217.176" fill="black" font-size="6.20397" font-family="Helvetica">
1000
</text>
<path d="M23.9331,210.052v -184.619" fill="none" stroke="black"/>
<path d="M28.1964,210.052h -4.26331" fill="none" stroke="black"/>
<path d="M26.0647,206.311h -2.13165" fill="none" stroke="black"/>
<path d="M26.0647,202.57h -2.13165" fill="none" stroke="black"/>
<path d="M26.0647,198.829h -2.13165" fill="none" stroke="black"/>
<path d="M26.0647,195.088h -2.13165" fill="none" stroke="black"/>
<path d="M28.1964,191.347h -4.26331" fill="none" stroke="black"/>
<path d="M26.0647,187.606h -2.13165" fill="none" stroke="black"/>
<path d="M26.0647,183.865h -2.13165" fill="none" stroke="black"/>
<path d="M26.0647,180.123h -2.13165" fill="none" stroke="black"/>
<path d="M26.0647,176.382h -2.13165" fill="none" stroke="black"/>
<path d="M28.1964,172.641h -4.26331" fill="none" stroke="black"/>
<path d="M26.0647,168.9h -2.13165" fill="none" stroke="black"/>
<path d="M26.0647,165.159h -2.13165" fill="none" stroke="black"/>
<path d="M26.0647,161.418h -2.13165" fill="none" stroke="black"/>
<path d="M26.0647,157.677h -2.13165" fill="none" stroke="black"/>
<path d="M28.1964,153.936h -4.26331" fill="none" stroke="black"/>
<path d="M26.0647,150.195h -2.13165" fill="none" stroke="black"/>
<path d="M26.0647,146.454h -2.13165" fill="none" stroke="black"/>
<path d="M26.0647,142.713h -2.13165" fill="none" stroke="black"/>
<path d="M26.0647,138.972h -2.13165" fill="none" stroke="black"/>
<path d="M28.1964,135.231h -4.26331" fill="none" stroke="black"/>
<path d="M26.0647,131.49h -2.13165" fill="none" stroke="black"/>
<path d="M26.0647,127.749h -2.13165" fill="none" stroke="black"/>
<path d="M26.0647,124.008h -2.13165" fill="none" stroke="black"/>
<path d="M26.0647,120.267h -2.13165" fill="none" stroke="black"/>
<path d="M28.1964,116.526h -4.26331" fill="none" stroke="black"/>
<path d="M26.0647,112.785h -2.13165" fill="none" stroke="black"/>
<path d="M26.0647,109.044h -2.13165" fill="none" stroke="black"/>
<path d="M26.0647,105.303h -2.13165" fill="none" stroke="black"/>
<path d="M26.0647,101.562h -2.13165" fill="none" stroke="black"/>
<path d="M28.1964,97.821h -4.26331" fill="none" stroke="black"/>
<path d="M26.0647,94.08h -2.13165" fill="none" stroke="black"/>
<path d="M26.0647,90.339h -2.13165" fill="none" stroke="black"/>
<path d="M26.0647,86.598h -2.13165" fill="none" stroke="black"/>
<path d="M26.0647,82.8569h -2.13165" fill="none" stroke="black"/>
<path d="M28.1964,79.1159h -4.26331" fill="none" stroke="black"/>
<path d="M26.0647,75.3749h -2.13165" fill="none" stroke="black"/>
<path d="M26.0647,71.6339h -2.13165" fill="none" stroke="black"/>
<path d="M26.0647,67.8929h -2.13165" fill="none" stroke="black"/>
<path d="M26.0647,64.1518h -2.13165" fill="none" stroke="black"/>
<path d="M28.1964,60.4108h -4.26331" fill="none" stroke="black"/>
<path d="M26.0647,56.6698h -2.13165" fill="none" stroke="black"/>
<path d="M26.0647,52.9288h -2.13165" fill="none" stroke="black"/>
<path d="M26.0647,49.1877h -2.13165" fill="none" stroke="black"/>
<path d="M26.0647,45.4467h -2.13165" fill="none" stroke="black"/>
<path d="M28.1964,41.7057h -4.26331" fill="none" stroke="black"/>
<path d="M28.1964,41.7057h -4.26331" fill="none" stroke="black"/>
<path d="M26.0647,37.9647h -2.13165" fill="none" stroke="black"/>
<path d="M26.0647,34.2237h -2.13165" fill="none" stroke="black"/>
<path d="M26.0647,30.4826h -2.13165" fill="none" stroke="black"/>
<path d="M26.0647,26.7416h -2.13165" fill="none" stroke="black"/>
<text xml:space="preserve" x="19.4397" y="212.125" fill="black" font-size="6.20397" font-family="Helvetica">
0
</text>
<text xml:space="preserve" x="19.4397" y="193.817" fill="black" font-size="6.20397" font-family="Helvetica">
5
</text>
<text xml:space="preserve" x="16.2831" y="174.877" fill="black" font-size="6.20397" font-family="Helvetica">
10
</text>
<text xml:space="preserve" x="16.2831" y="155.937" fill="black" font-size="6.20397" font-family="Helvetica">
15
</text>
<text xml:space="preserve" x="16.2831" y="137.629" fill="black" font-size="6.20397" font-family="Helvetica">
20
</text>
<text xml:space="preserve" x="16.2831" y="118.689" fill="black" font-size="6.20397" font-family="Helvetica">
25
</text>
<text xml:space="preserve" x="16.2831" y="99.7492" fill="black" font-size="6.20397" font-family="Helvetica">
30
</text>
<text xml:space="preserve" x="16.2831" y="81.4408" fill="black" font-size="6.20397" font-family="Helvetica">
35
</text>
<text xml:space="preserve" x="16.2831" y="62.5011" fill="black" font-size="6.20397" font-family="Helvetica">
40
</text>
<text xml:space="preserve" x="16.2831" y="44.1927" fill="black" font-size="6.20397" font-family="Helvetica">
45
</text>
<rect x="144.727" y="17.3552" width="35.5276" height="36.9239" fill="white"/>
<path d="M144.727,54.279h 35.5276" fill="none" stroke="black"/>
<path d="M180.254,54.279v -36.9239" fill="none" stroke="black"/>
<path d="M180.254,17.3552h -35.5276" fill="none" stroke="black"/>
<path d="M144.727,17.3552v 36.9239" fill="none" stroke="black"/>
<text xml:space="preserve" x="158.962" y="24.6216" fill="black" font-size="6.49731" font-family="Helvetica">
h1
</text>
<path d="M144.727,26.5861h 35.5276" fill="none" stroke="black"/>
<text xml:space="preserve" x="146.336" y="32.8289" fill="black" font-size="4.455" font-family="Helvetica">
Entries 
</text>
<text xml:space="preserve" x="169.064" y="32.8289" fill="black" font-size="4.455" font-family="Helvetica">
 1001
</text>
<text xml:space="preserve" x="146.336" y="42.2987" fill="black" font-size="4.455" font-family="Helvetica">
Mean  
</text>
<text xml:space="preserve" x="166.538" y="42.2987" fill="black" font-size="4.455" font-family="Helvetica">
  190.1
</text>
<text xml:space="preserve" x="146.336" y="51.1373" fill="black" font-size="4.455" font-family="Helvetica">
Std Dev   
</text>
<text xml:space="preserve" x="165.907" y="51.1373" fill="black" font-size="4.455" font-family="Helvetica">
  11.84
</text>
<text xml:space="preserve" x="64.2637" y="12.6265" fill="black" font-size="8.11887" font-family="Helvetica">
Number of events
</text>
<rect x="195.146" y="2.35484" width="177.638" height="230.774" fill="white"/>
<rect x="212.909" y="25.4323" width="142.11" height="184.619" fill="white"/>
<rect x="212.909" y="25.4323" width="142.11" height="184.619" fill="none" stroke="black"/>
<rect x="212.909" y="25.4323" width="142.11" height="184.619" fill="white"/>
<rect x="212.909" y="25.4323" width="142.11" height="184.619" fill="none" stroke="black"/>
<path d="M239.2,45.0339v -5.40513" fill="none" stroke="#000099"/>
<path d="M239.2,39.6288v -5.40513" fill="none" stroke="#000099"/>
<path d="M238.489,39.6288h 0.710551" fill="none" stroke="#000099"/>
<path d="M239.2,39.6288h 0.710551" fill="none" stroke="#000099"/>
<g stroke="black" stroke-width="1" fill="none">
<line x1="238.2" y1="39.6288" x2="239.2" y2="39.6288"/>
</g>
<path d="M240.621,209.838v -0.291558" fill="none" stroke="#000099"/>
<path d="M240.621,209.547v -0.291558" fill="none" stroke="#000099"/>
<path d="M239.91,209.547h 0.710551" fill="none" stroke="#000099"/>
<path d="M240.621,209.547h 0.710551" fill="none" stroke="#000099"/>
<g stroke="black" stroke-width="1" fill="none">
<line x1="239.621" y1="209.547" x2="240.621" y2="209.547"/>
</g>
<rect x="333.703" y="17.3552" width="35.5276" height="36.9239" fill="white"/>
<path d="M333.703,54.279h 35.5276" fill="none" stroke="black"/>
<path d="M369.231,54.279v -36.9239" fill="none" stroke="black"/>
<path d="M369.231,17.3552h -35.5276" fill="none" stroke="black"/>
<path d="M333.703,17.3552v 36.9239" fill="none" stroke="black"/>
<text xml:space="preserve" x="347.097" y="24.6216" fill="black" font-size="6.49731" font-family="Helvetica">
h2
</text>
<path d="M333.703,26.5861h 35.5276" fill="none" stroke="black"/>
<text xml:space="preserve" x="335.102" y="32.8289" fill="black" font-size="3.78684" font-family="Helvetica">
Entries 
</text>
<text xml:space="preserve" x="359.723" y="32.1975" fill="black" font-size="3.78684" font-family="Helvetica">
 1001
</text>
<text xml:space="preserve" x="335.102" y="42.2987" fill="black" font-size="3.78684" font-family="Helvetica">
Mean  
</text>
<text xml:space="preserve" x="356.567" y="41.6674" fill="black" font-size="3.78684" font-family="Helvetica">
 0.9394
</text>
<text xml:space="preserve" x="335.102" y="51.1373" fill="black" font-size="3.78684" font-family="Helvetica">
Std Dev   
</text>
<text xml:space="preserve" x="351.516" y="50.5059" fill="black" font-size="3.78684" font-family="Helvetica">
 0.0009802
</text>
<path d="M212.909,210.052h 142.11" fill="none" stroke="black"/>
<path d="M212.909,204.513v 5.53858" fill="none" stroke="black"/>
<path d="M215.752,207.282v 2.76929" fill="none" stroke="black"/>
<path d="M218.594,207.282v 2.76929" fill="none" stroke="black"/>
<path d="M221.436,207.282v 2.76929" fill="none" stroke="black"/>
<path d="M224.278,207.282v 2.76929" fill="none" stroke="black"/>
<path d="M227.12,204.513v 5.53858" fill="none" stroke="black"/>
<path d="M229.963,207.282v 2.76929" fill="none" stroke="black"/>
<path d="M232.805,207.282v 2.76929" fill="none" stroke="black"/>
<path d="M235.647,207.282v 2.76929" fill="none" stroke="black"/>
<path d="M238.489,207.282v 2.76929" fill="none" stroke="black"/>
<path d="M241.331,204.513v 5.53858" fill="none" stroke="black"/>
<path d="M244.174,207.282v 2.76929" fill="none" stroke="black"/>
<path d="M247.016,207.282v 2.76929" fill="none" stroke="black"/>
<path d="M249.858,207.282v 2.76929" fill="none" stroke="black"/>
<path d="M252.7,207.282v 2.76929" fill="none" stroke="black"/>
<path d="M255.543,204.513v 5.53858" fill="none" stroke="black"/>
<path d="M258.385,207.282v 2.76929" fill="none" stroke="black"/>
<path d="M261.227,207.282v 2.76929" fill="none" stroke="black"/>
<path d="M264.069,207.282v 2.76929" fill="none" stroke="black"/>
<path d="M266.911,207.282v 2.76929" fill="none" stroke="black"/>
<path d="M269.754,204.513v 5.53858" fill="none" stroke="black"/>
<path d="M272.596,207.282v 2.76929" fill="none" stroke="black"/>
<path d="M275.438,207.282v 2.76929" fill="none" stroke="black"/>
<path d="M278.28,207.282v 2.76929" fill="none" stroke="black"/>
<path d="M281.122,207.282v 2.76929" fill="none" stroke="black"/>
<path d="M283.965,204.513v 5.53858" fill="none" stroke="black"/>
<path d="M286.807,207.282v 2.76929" fill="none" stroke="black"/>
<path d="M289.649,207.282v 2.76929" fill="none" stroke="black"/>
<path d="M292.491,207.282v 2.76929" fill="none" stroke="black"/>
<path d="M295.333,207.282v 2.76929" fill="none" stroke="black"/>
<path d="M298.176,204.513v 5.53858" fill="none" stroke="black"/>
<path d="M301.018,207.282v 2.76929" fill="none" stroke="black"/>
<path d="M303.86,207.282v 2.76929" fill="none" stroke="black"/>
<path d="M306.702,207.282v 2.76929" fill="none" stroke="black"/>
<path d="M309.544,207.282v 2.76929" fill="none" stroke="black"/>
<path d="M312.387,204.513v 5.53858" fill="none" stroke="black"/>
<path d="M315.229,207.282v 2.76929" fill="none" stroke="black"/>
<path d="M318.071,207.282v 2.76929" fill="none" stroke="black"/>
<path d="M320.913,207.282v 2.76929" fill="none" stroke="black"/>
<path d="M323.755,207.282v 2.76929" fill="none" stroke="black"/>
<path d="M326.598,204.513v 5.53858" fill="none" stroke="black"/>
<path d="M329.44,207.282v 2.76929" fill="none" stroke="black"/>
<path d="M332.282,207.282v 2.76929" fill="none" stroke="black"/>
<path d="M335.124,207.282v 2.76929" fill="none" stroke="black"/>
<path d="M337.966,207.282v 2.76929" fill="none" stroke="black"/>
<path d="M340.809,204.513v 5.53858" fill="none" stroke="black"/>
<path d="M343.651,207.282v 2.76929" fill="none" stroke="black"/>
<path d="M346.493,207.282v 2.76929" fill="none" stroke="black"/>
<path d="M349.335,207.282v 2.76929" fill="none" stroke="black"/>
<path d="M352.177,207.282v 2.76929" fill="none" stroke="black"/>
<path d="M355.02,204.513v 5.53858" fill="none" stroke="black"/>
<text xml:space="preserve" x="210.731" y="217.176" fill="black" font-size="6.20397" font-family="Helvetica">
0
</text>
<text xml:space="preserve" x="222.095" y="217.176" fill="black" font-size="6.20397" font-family="Helvetica">
0.5
</text>
<text xml:space="preserve" x="239.772" y="217.176" fill="black" font-size="6.20397" font-family="Helvetica">
1
</text>
<text xml:space="preserve" x="250.504" y="217.176" fill="black" font-size="6.20397" font-family="Helvetica">
1.5
</text>
<text xml:space="preserve" x="267.55" y="217.176" fill="black" font-size="6.20397" font-family="Helvetica">
2
</text>
<text xml:space="preserve" x="279.545" y="217.176" fill="black" font-size="6.20397" font-family="Helvetica">
2.5
</text>
<text xml:space="preserve" x="295.96" y="217.176" fill="black" font-size="6.20397" font-family="Helvetica">
3
</text>
<text xml:space="preserve" x="307.955" y="217.176" fill="black" font-size="6.20397" font-family="Helvetica">
3.5
</text>
<text xml:space="preserve" x="324.369" y="217.176" fill="black" font-size="6.20397" font-family="Helvetica">
4
</text>
<text xml:space="preserve" x="336.364" y="217.176" fill="black" font-size="6.20397" font-family="Helvetica">
4.5
</text>
<text xml:space="preserve" x="352.779" y="217.176" fill="black" font-size="6.20397" font-family="Helvetica">
5
</text>
<path d="M212.909,210.052v -184.619" fill="none" stroke="black"/>
<path d="M217.173,210.052h -4.26331" fill="none" stroke="black"/>
<path d="M215.041,205.56h -2.13165" fill="none" stroke="black"/>
<path d="M215.041,201.069h -2.13165" fill="none" stroke="black"/>
<path d="M215.041,196.577h -2.13165" fill="none" stroke="black"/>
<path d="M217.173,192.086h -4.26331" fill="none" stroke="black"/>
<path d="M215.041,187.594h -2.13165" fill="none" stroke="black"/>
<path d="M215.041,183.102h -2.13165" fill="none" stroke="black"/>
<path d="M215.041,178.611h -2.13165" fill="none" stroke="black"/>
<path d="M217.173,174.119h -4.26331" fill="none" stroke="black"/>
<path d="M215.041,169.628h -2.13165" fill="none" stroke="black"/>
<path d="M215.041,165.136h -2.13165" fill="none" stroke="black"/>
<path d="M215.041,160.645h -2.13165" fill="none" stroke="black"/>
<path d="M217.173,156.153h -4.26331" fill="none" stroke="black"/>
<path d="M215.041,151.662h -2.13165" fill="none" stroke="black"/>
<path d="M215.041,147.17h -2.13165" fill="none" stroke="black"/>
<path d="M215.041,142.679h -2.13165" fill="none" stroke="black"/>
<path d="M217.173,138.187h -4.26331" fill="none" stroke="black"/>
<path d="M215.041,133.696h -2.13165" fill="none" stroke="black"/>
<path d="M215.041,129.204h -2.13165" fill="none" stroke="black"/>
<path d="M215.041,124.713h -2.13165" fill="none" stroke="black"/>
<path d="M217.173,120.221h -4.26331" fill="none" stroke="black"/>
<path d="M215.041,115.73h -2.13165" fill="none" stroke="black"/>
<path d="M215.041,111.238h -2.13165" fill="none" stroke="black"/>
<path d="M215.041,106.747h -2.13165" fill="none" stroke="black"/>
<path d="M217.173,102.255h -4.26331" fill="none" stroke="black"/>
<path d="M215.041,97.7635h -2.13165" fill="none" stroke="black"/>
<path d="M215.041,93.272h -2.13165" fill="none" stroke="black"/>
<path d="M215.041,88.7805h -2.13165" fill="none" stroke="black"/>
<path d="M217.173,84.2889h -4.26331" fill="none" stroke="black"/>
<path d="M215.041,79.7974h -2.13165" fill="none" stroke="black"/>
<path d="M215.041,75.3059h -2.13165" fill="none" stroke="black"/>
<path d="M215.041,70.8144h -2.13165" fill="none" stroke="black"/>
<path d="M217.173,66.3228h -4.26331" fill="none" stroke="black"/>
<path d="M215.041,61.8313h -2.13165" fill="none" stroke="black"/>
<path d="M215.041,57.3398h -2.13165" fill="none" stroke="black"/>
<path d="M215.041,52.8483h -2.13165" fill="none" stroke="black"/>
<path d="M217.173,48.3567h -4.26331" fill="none" stroke="black"/>
<path d="M215.041,43.8652h -2.13165" fill="none" stroke="black"/>
<path d="M215.041,39.3737h -2.13165" fill="none" stroke="black"/>
<path d="M215.041,34.8821h -2.13165" fill="none" stroke="black"/>
<path d="M217.173,30.3906h -4.26331" fill="none" stroke="black"/>
<path d="M217.173,30.3906h -4.26331" fill="none" stroke="black"/>
<path d="M215.041,25.8991h -2.13165" fill="none" stroke="black"/>
<text xml:space="preserve" x="208.837" y="212.125" fill="black" font-size="6.20397" font-family="Helvetica">
0
</text>
<text xml:space="preserve" x="205.68" y="194.448" fill="black" font-size="6.20397" font-family="Helvetica">
20
</text>
<text xml:space="preserve" x="205.68" y="176.139" fill="black" font-size="6.20397" font-family="Helvetica">
40
</text>
<text xml:space="preserve" x="205.68" y="158.462" fill="black" font-size="6.20397" font-family="Helvetica">
60
</text>
<text xml:space="preserve" x="205.68" y="140.154" fill="black" font-size="6.20397" font-family="Helvetica">
80
</text>
<text xml:space="preserve" x="202.524" y="122.477" fill="black" font-size="6.20397" font-family="Helvetica">
100
</text>
<text xml:space="preserve" x="202.524" y="104.168" fill="black" font-size="6.20397" font-family="Helvetica">
120
</text>
<text xml:space="preserve" x="202.524" y="86.4914" fill="black" font-size="6.20397" font-family="Helvetica">
140
</text>
<text xml:space="preserve" x="202.524" y="68.8143" fill="black" font-size="6.20397" font-family="Helvetica">
160
</text>
<text xml:space="preserve" x="202.524" y="50.5059" fill="black" font-size="6.20397" font-family="Helvetica">
180
</text>
<text xml:space="preserve" x="202.524" y="32.8289" fill="black" font-size="6.20397" font-family="Helvetica">
200
</text>
<text xml:space="preserve" x="222.095" y="20.8337" fill="black" font-size="4.30264" font-family="Helvetica">
3
</text>
<text xml:space="preserve" x="215.782" y="24.6216" fill="black" font-size="6.20397" font-family="Helvetica">
10
</text>
<text xml:space="preserve" x="212.625" y="24.6216" fill="black" font-size="6.20397" font-family="Times">
&#0215;
</text>
<rect x="333.703" y="17.3552" width="35.5276" height="36.9239" fill="white"/>
<path d="M333.703,54.279h 35.5276" fill="none" stroke="black"/>
<path d="M369.231,54.279v -36.9239" fill="none" stroke="black"/>
<path d="M369.231,17.3552h -35.5276" fill="none" stroke="black"/>
<path d="M333.703,17.3552v 36.9239" fill="none" stroke="black"/>
<text xml:space="preserve" x="347.097" y="24.6216" fill="black" font-size="6.49731" font-family="Helvetica">
h2
</text>
<path d="M333.703,26.5861h 35.5276" fill="none" stroke="black"/>
<text xml:space="preserve" x="335.102" y="32.8289" fill="black" font-size="3.78684" font-family="Helvetica">
Entries 
</text>
<text xml:space="preserve" x="359.723" y="32.1975" fill="black" font-size="3.78684" font-family="Helvetica">
 1001
</text>
<text xml:space="preserve" x="335.102" y="42.2987" fill="black" font-size="3.78684" font-family="Helvetica">
Mean  
</text>
<text xml:space="preserve" x="356.567" y="41.6674" fill="black" font-size="3.78684" font-family="Helvetica">
 0.9394
</text>
<text xml:space="preserve" x="335.102" y="51.1373" fill="black" font-size="3.78684" font-family="Helvetica">
Std Dev   
</text>
<text xml:space="preserve" x="351.516" y="50.5059" fill="black" font-size="3.78684" font-family="Helvetica">
 0.0009802
</text>
<text xml:space="preserve" x="255.555" y="11.9952" fill="black" font-size="8.11887" font-family="Helvetica">
Energy of events
</text>
<rect x="384.122" y="2.35484" width="177.638" height="230.774" fill="white"/>
<rect x="401.886" y="25.4323" width="142.11" height="184.619" fill="white"/>
<rect x="401.886" y="25.4323" width="142.11" height="184.619" fill="none" stroke="black"/>
<rect x="401.886" y="25.4323" width="142.11" height="184.619" fill="white"/>
<rect x="401.886" y="25.4323" width="142.11" height="184.619" fill="none" stroke="black"/>
<path d="M405.439,209.759v -0.707484" fill="none" stroke="#000099"/>
<path d="M405.439,209.052v -0.707484" fill="none" stroke="#000099"/>
<path d="M404.728,209.052h 0.710551" fill="none" stroke="#000099"/>
<path d="M405.439,209.052h 0.710551" fill="none" stroke="#000099"/>
<g stroke="black" stroke-width="1" fill="none">
<line x1="404.439" y1="209.052" x2="405.439" y2="209.052"/>
</g>
<path d="M406.86,204.775v -1.92581" fill="none" stroke="#000099"/>
<path d="M406.86,202.85v -1.92581" fill="none" stroke="#000099"/>
<path d="M406.149,202.85h 0.710551" fill="none" stroke="#000099"/>
<path d="M406.86,202.85h 0.710551" fill="none" stroke="#000099"/>
<g stroke="black" stroke-width="1" fill="none">
<line x1="405.86" y1="202.85" x2="406.86" y2="202.85"/>
</g>
<path d="M408.281,177.016v -4.45205" fill="none" stroke="#000099"/>
<path d="M408.281,172.564v -4.45205" fill="none" stroke="#000099"/>
<path d="M407.57,172.564h 0.710551" fill="none" stroke="#000099"/>
<path d="M408.281,172.564h 0.710551" fill="none" stroke="#000099"/>
<g stroke="black" stroke-width="1" fill="none">
<line x1="407.281" y1="172.564" x2="408.281" y2="172.564"/>
</g>
<path d="M409.702,114.737v -7.46104" fill="none" stroke="#000099"/>
<path d="M409.702,107.276v -7.46104" fill="none" stroke="#000099"/>
<path d="M408.991,107.276h 0.710551" fill="none" stroke="#000099"/>
<path d="M409.702,107.276h 0.710551" fill="none" stroke="#000099"/>
<g stroke="black" stroke-width="1" fill="none">
<line x1="408.702" y1="107.276" x2="409.702" y2="107.276"/>
</g>
<path d="M411.123,53.4921v -9.63424" fill="none" stroke="#000099"/>
<path d="M411.123,43.8579v -9.63424" fill="none" stroke="#000099"/>
<path d="M410.412,43.8579h 0.710551" fill="none" stroke="#000099"/>
<path d="M411.123,43.8579h 0.710551" fill="none" stroke="#000099"/>
<g stroke="black" stroke-width="1" fill="none">
<line x1="410.123" y1="43.8579" x2="411.123" y2="43.8579"/>
</g>
<path d="M412.544,83.085v -8.80842" fill="none" stroke="#000099"/>
<path d="M412.544,74.2766v -8.80842" fill="none" stroke="#000099"/>
<path d="M411.834,74.2766h 0.710551" fill="none" stroke="#000099"/>
<path d="M412.544,74.2766h 0.710551" fill="none" stroke="#000099"/>
<g stroke="black" stroke-width="1" fill="none">
<line x1="411.544" y1="74.2766" x2="412.544" y2="74.2766"/>
</g>
<path d="M413.965,139.724v -6.73946" fill="none" stroke="#000099"/>
<path d="M413.965,132.985v -6.73946" fill="none" stroke="#000099"/>
<path d="M413.255,132.985h 0.710551" fill="none" stroke="#000099"/>
<path d="M413.965,132.985h 0.710551" fill="none" stroke="#000099"/>
<g stroke="black" stroke-width="1" fill="none">
<line x1="412.965" y1="132.985" x2="413.965" y2="132.985"/>
</g>
<path d="M415.386,182.616v -4.37485" fill="none" stroke="#000099"/>
<path d="M415.386,178.241v -4.37485" fill="none" stroke="#000099"/>
<path d="M414.676,178.241h 0.710551" fill="none" stroke="#000099"/>
<path d="M415.386,178.241h 0.710551" fill="none" stroke="#000099"/>
<g stroke="black" stroke-width="1" fill="none">
<line x1="414.386" y1="178.241" x2="415.386" y2="178.241"/>
</g>
<path d="M416.807,209.264v -1.07959" fill="none" stroke="#000099"/>
<path d="M416.807,208.185v -1.07959" fill="none" stroke="#000099"/>
<path d="M416.097,208.185h 0.710551" fill="none" stroke="#000099"/>
<path d="M416.807,208.185h 0.710551" fill="none" stroke="#000099"/>
<g stroke="black" stroke-width="1" fill="none">
<line x1="415.807" y1="208.185" x2="416.807" y2="208.185"/>
</g>
<rect x="522.68" y="17.3552" width="35.5276" height="36.9239" fill="white"/>
<path d="M522.68,54.279h 35.5276" fill="none" stroke="black"/>
<path d="M558.207,54.279v -36.9239" fill="none" stroke="black"/>
<path d="M558.207,17.3552h -35.5276" fill="none" stroke="black"/>
<path d="M522.68,17.3552v 36.9239" fill="none" stroke="black"/>
<text xml:space="preserve" x="536.494" y="23.9903" fill="black" font-size="6.49731" font-family="Helvetica">
h3
</text>
<path d="M522.68,26.5861h 35.5276" fill="none" stroke="black"/>
<text xml:space="preserve" x="523.868" y="32.8289" fill="black" font-size="4.27447" font-family="Helvetica">
Entries 
</text>
<text xml:space="preserve" x="547.227" y="32.8289" fill="black" font-size="4.27447" font-family="Helvetica">
 1001
</text>
<text xml:space="preserve" x="523.868" y="42.2987" fill="black" font-size="4.27447" font-family="Helvetica">
Mean  
</text>
<text xml:space="preserve" x="543.439" y="42.2987" fill="black" font-size="4.27447" font-family="Helvetica">
 0.2053
</text>
<text xml:space="preserve" x="523.868" y="51.1373" fill="black" font-size="4.27447" font-family="Helvetica">
Std Dev   
</text>
<text xml:space="preserve" x="541.545" y="51.1373" fill="black" font-size="4.27447" font-family="Helvetica">
 0.03951
</text>
<path d="M401.886,210.052h 142.11" fill="none" stroke="black"/>
<path d="M401.886,204.513v 5.53858" fill="none" stroke="black"/>
<path d="M406.623,207.282v 2.76929" fill="none" stroke="black"/>
<path d="M411.36,207.282v 2.76929" fill="none" stroke="black"/>
<path d="M416.097,207.282v 2.76929" fill="none" stroke="black"/>
<path d="M420.834,207.282v 2.76929" fill="none" stroke="black"/>
<path d="M425.571,204.513v 5.53858" fill="none" stroke="black"/>
<path d="M430.308,207.282v 2.76929" fill="none" stroke="black"/>
<path d="M435.045,207.282v 2.76929" fill="none" stroke="black"/>
<path d="M439.782,207.282v 2.76929" fill="none" stroke="black"/>
<path d="M444.519,207.282v 2.76929" fill="none" stroke="black"/>
<path d="M449.256,204.513v 5.53858" fill="none" stroke="black"/>
<path d="M453.993,207.282v 2.76929" fill="none" stroke="black"/>
<path d="M458.73,207.282v 2.76929" fill="none" stroke="black"/>
<path d="M463.467,207.282v 2.76929" fill="none" stroke="black"/>
<path d="M468.204,207.282v 2.76929" fill="none" stroke="black"/>
<path d="M472.941,204.513v 5.53858" fill="none" stroke="black"/>
<path d="M477.678,207.282v 2.76929" fill="none" stroke="black"/>
<path d="M482.415,207.282v 2.76929" fill="none" stroke="black"/>
<path d="M487.152,207.282v 2.76929" fill="none" stroke="black"/>
<path d="M491.889,207.282v 2.76929" fill="none" stroke="black"/>
<path d="M496.626,204.513v 5.53858" fill="none" stroke="black"/>
<path d="M501.363,207.282v 2.76929" fill="none" stroke="black"/>
<path d="M506.1,207.282v 2.76929" fill="none" stroke="black"/>
<path d="M510.837,207.282v 2.76929" fill="none" stroke="black"/>
<path d="M515.574,207.282v 2.76929" fill="none" stroke="black"/>
<path d="M520.311,204.513v 5.53858" fill="none" stroke="black"/>
<path d="M525.048,207.282v 2.76929" fill="none" stroke="black"/>
<path d="M529.785,207.282v 2.76929" fill="none" stroke="black"/>
<path d="M534.522,207.282v 2.76929" fill="none" stroke="black"/>
<path d="M539.259,207.282v 2.76929" fill="none" stroke="black"/>
<path d="M543.996,204.513v 5.53858" fill="none" stroke="black"/>
<path d="M543.996,204.513v 5.53858" fill="none" stroke="black"/>
<text xml:space="preserve" x="399.497" y="217.176" fill="black" font-size="6.20397" font-family="Helvetica">
0
</text>
<text xml:space="preserve" x="420.962" y="217.176" fill="black" font-size="6.20397" font-family="Helvetica">
0.5
</text>
<text xml:space="preserve" x="447.478" y="217.176" fill="black" font-size="6.20397" font-family="Helvetica">
1
</text>
<text xml:space="preserve" x="468.311" y="217.176" fill="black" font-size="6.20397" font-family="Helvetica">
1.5
</text>
<text xml:space="preserve" x="494.196" y="217.176" fill="black" font-size="6.20397" font-family="Helvetica">
2
</text>
<text xml:space="preserve" x="515.661" y="217.176" fill="black" font-size="6.20397" font-family="Helvetica">
2.5
</text>
<text xml:space="preserve" x="541.545" y="217.176" fill="black" font-size="6.20397" font-family="Helvetica">
3
</text>
<path d="M401.886,210.052v -184.619" fill="none" stroke="black"/>
<path d="M406.149,210.052h -4.26331" fill="none" stroke="black"/>
<path d="M404.017,204.153h -2.13165" fill="none" stroke="black"/>
<path d="M404.017,198.255h -2.13165" fill="none" stroke="black"/>
<path d="M404.017,192.356h -2.13165" fill="none" stroke="black"/>
<path d="M404.017,186.458h -2.13165" fill="none" stroke="black"/>
<path d="M406.149,180.559h -4.26331" fill="none" stroke="black"/>
<path d="M404.017,174.661h -2.13165" fill="none" stroke="black"/>
<path d="M404.017,168.762h -2.13165" fill="none" stroke="black"/>
<path d="M404.017,162.863h -2.13165" fill="none" stroke="black"/>
<path d="M404.017,156.965h -2.13165" fill="none" stroke="black"/>
<path d="M406.149,151.066h -4.26331" fill="none" stroke="black"/>
<path d="M404.017,145.168h -2.13165" fill="none" stroke="black"/>
<path d="M404.017,139.269h -2.13165" fill="none" stroke="black"/>
<path d="M404.017,133.371h -2.13165" fill="none" stroke="black"/>
<path d="M404.017,127.472h -2.13165" fill="none" stroke="black"/>
<path d="M406.149,121.574h -4.26331" fill="none" stroke="black"/>
<path d="M404.017,115.675h -2.13165" fill="none" stroke="black"/>
<path d="M404.017,109.777h -2.13165" fill="none" stroke="black"/>
<path d="M404.017,103.878h -2.13165" fill="none" stroke="black"/>
<path d="M404.017,97.9798h -2.13165" fill="none" stroke="black"/>
<path d="M406.149,92.0813h -4.26331" fill="none" stroke="black"/>
<path d="M404.017,86.1827h -2.13165" fill="none" stroke="black"/>
<path d="M404.017,80.2842h -2.13165" fill="none" stroke="black"/>
<path d="M404.017,74.3857h -2.13165" fill="none" stroke="black"/>
<path d="M404.017,68.4872h -2.13165" fill="none" stroke="black"/>
<path d="M406.149,62.5887h -4.26331" fill="none" stroke="black"/>
<path d="M404.017,56.6901h -2.13165" fill="none" stroke="black"/>
<path d="M404.017,50.7916h -2.13165" fill="none" stroke="black"/>
<path d="M404.017,44.8931h -2.13165" fill="none" stroke="black"/>
<path d="M404.017,38.9946h -2.13165" fill="none" stroke="black"/>
<path d="M406.149,33.0961h -4.26331" fill="none" stroke="black"/>
<path d="M406.149,33.0961h -4.26331" fill="none" stroke="black"/>
<path d="M404.017,27.1975h -2.13165" fill="none" stroke="black"/>
<text xml:space="preserve" x="397.603" y="212.125" fill="black" font-size="6.20397" font-family="Helvetica">
0
</text>
<text xml:space="preserve" x="384.976" y="183.084" fill="black" font-size="6.20397" font-family="Helvetica">
10000
</text>
<text xml:space="preserve" x="384.976" y="153.412" fill="black" font-size="6.20397" font-family="Helvetica">
20000
</text>
<text xml:space="preserve" x="384.976" y="123.74" fill="black" font-size="6.20397" font-family="Helvetica">
30000
</text>
<text xml:space="preserve" x="384.976" y="94.0673" fill="black" font-size="6.20397" font-family="Helvetica">
40000
</text>
<text xml:space="preserve" x="384.976" y="65.0264" fill="black" font-size="6.20397" font-family="Helvetica">
50000
</text>
<text xml:space="preserve" x="384.976" y="35.3542" fill="black" font-size="6.20397" font-family="Helvetica">
60000
</text>
<rect x="522.68" y="17.3552" width="35.5276" height="36.9239" fill="white"/>
<path d="M522.68,54.279h 35.5276" fill="none" stroke="black"/>
<path d="M558.207,54.279v -36.9239" fill="none" stroke="black"/>
<path d="M558.207,17.3552h -35.5276" fill="none" stroke="black"/>
<path d="M522.68,17.3552v 36.9239" fill="none" stroke="black"/>
<text xml:space="preserve" x="536.494" y="23.9903" fill="black" font-size="6.49731" font-family="Helvetica">
h3
</text>
<path d="M522.68,26.5861h 35.5276" fill="none" stroke="black"/>
<text xml:space="preserve" x="523.868" y="32.8289" fill="black" font-size="4.27447" font-family="Helvetica">
Entries 
</text>
<text xml:space="preserve" x="547.227" y="32.8289" fill="black" font-size="4.27447" font-family="Helvetica">
 1001
</text>
<text xml:space="preserve" x="523.868" y="42.2987" fill="black" font-size="4.27447" font-family="Helvetica">
Mean  
</text>
<text xml:space="preserve" x="543.439" y="42.2987" fill="black" font-size="4.27447" font-family="Helvetica">
 0.2053
</text>
<text xml:space="preserve" x="523.868" y="51.1373" fill="black" font-size="4.27447" font-family="Helvetica">
Std Dev   
</text>
<text xml:space="preserve" x="541.545" y="51.1373" fill="black" font-size="4.27447" font-family="Helvetica">
 0.03951
</text>
<text xml:space="preserve" x="440.533" y="12.6265" fill="black" font-size="8.11887" font-family="Helvetica">
Momenta of events
</text></svg>
